M48
METRIC
T1C0.300
T2C0.800
T3C0.900
T4C0.914
T5C1.000
T6C1.010
T7C1.016
T8C1.100
T9C1.300
T10C2.500
%
G90
G05
T1
X169.825Y75.5
T2
X143.95Y99.45
X145.06Y60.8
X145.95Y99.45
X147.56Y60.8
X150.75Y99.45
X153.25Y99.45
X153.95Y60.9
X156.45Y60.9
X186.75Y69.55
X186.75Y72.95
T3
X173.5Y72.9
X180.0Y72.9
T4
X143.896Y73.479
X143.896Y92.021
X146.436Y73.479
X146.436Y92.021
X154.564Y73.479
X154.564Y92.021
X157.104Y73.479
X157.104Y92.021
T5
X158.27Y55.5
X160.81Y55.5
X162.86Y62.71
X162.86Y65.25
X162.86Y67.79
X162.86Y70.33
X162.86Y72.87
X162.96Y78.23
X162.96Y80.77
X162.96Y83.31
X162.96Y85.85
X162.96Y88.39
X162.96Y121.55
X163.35Y55.5
X165.4Y62.71
X165.4Y65.25
X165.4Y67.79
X165.4Y70.33
X165.4Y72.87
X165.5Y78.23
X165.5Y80.77
X165.5Y83.31
X165.5Y85.85
X165.5Y88.39
X165.5Y121.55
X168.04Y121.55
X170.58Y121.55
X171.3Y49.0
X171.3Y51.54
X181.42Y51.26
X183.96Y51.26
X185.17Y121.4
X186.5Y51.26
X187.71Y121.4
X190.25Y121.4
X192.79Y121.4
X197.625Y93.502
X200.165Y93.502
X201.93Y59.55
X202.705Y93.502
X203.81Y50.565
X204.47Y59.55
X205.245Y93.502
X206.35Y50.565
X207.01Y59.55
X207.46Y121.4
X207.785Y93.502
X209.55Y59.55
X210.0Y121.4
X210.325Y93.502
X214.825Y90.3
X214.825Y92.84
T6
X147.9Y104.15
X153.0Y105.35
T7
X159.31Y49.9
X161.85Y49.9
X164.39Y49.9
T8
X176.2Y103.55
X176.2Y108.05
X176.2Y112.75
X176.2Y117.25
X182.7Y103.55
X182.7Y108.05
X182.7Y112.75
X182.7Y117.25
X194.45Y103.6
X194.45Y108.1
X194.45Y112.7
X194.45Y117.2
X200.95Y103.6
X200.95Y108.1
X200.95Y112.7
X200.95Y117.2
T9
X207.0Y117.45
X207.15Y105.2
X209.5Y112.45
X209.65Y100.2
X212.0Y117.45
X212.15Y105.2
T10
X143.5Y49.5
X143.5Y122.45
X216.5Y49.5
X216.5Y122.5
T5
X148.225Y112.15G85X148.225Y114.35
G05
X152.725Y118.05G85X150.525Y118.05
G05
X154.525Y111.95G85X154.525Y114.55
G05
M30
