%TF.GenerationSoftware,KiCad,Pcbnew,9.0.6*%
%TF.CreationDate,2026-02-16T15:35:22+05:30*%
%TF.ProjectId,peripheral_Starter,70657269-7068-4657-9261-6c5f53746172,v1*%
%TF.SameCoordinates,Original*%
%TF.FileFunction,Legend,Bot*%
%TF.FilePolarity,Positive*%
%FSLAX46Y46*%
G04 Gerber Fmt 4.6, Leading zero omitted, Abs format (unit mm)*
G04 Created by KiCad (PCBNEW 9.0.6) date 2026-02-16 15:35:22*
%MOMM*%
%LPD*%
G01*
G04 APERTURE LIST*
%ADD10C,0.200000*%
%ADD11C,0.044242*%
%ADD12C,0.000000*%
G04 APERTURE END LIST*
D10*
X186730326Y-89467219D02*
X186730326Y-88467219D01*
X186730326Y-88467219D02*
X186349374Y-88467219D01*
X186349374Y-88467219D02*
X186254136Y-88514838D01*
X186254136Y-88514838D02*
X186206517Y-88562457D01*
X186206517Y-88562457D02*
X186158898Y-88657695D01*
X186158898Y-88657695D02*
X186158898Y-88800552D01*
X186158898Y-88800552D02*
X186206517Y-88895790D01*
X186206517Y-88895790D02*
X186254136Y-88943409D01*
X186254136Y-88943409D02*
X186349374Y-88991028D01*
X186349374Y-88991028D02*
X186730326Y-88991028D01*
X185349374Y-89419600D02*
X185444612Y-89467219D01*
X185444612Y-89467219D02*
X185635088Y-89467219D01*
X185635088Y-89467219D02*
X185730326Y-89419600D01*
X185730326Y-89419600D02*
X185777945Y-89324361D01*
X185777945Y-89324361D02*
X185777945Y-88943409D01*
X185777945Y-88943409D02*
X185730326Y-88848171D01*
X185730326Y-88848171D02*
X185635088Y-88800552D01*
X185635088Y-88800552D02*
X185444612Y-88800552D01*
X185444612Y-88800552D02*
X185349374Y-88848171D01*
X185349374Y-88848171D02*
X185301755Y-88943409D01*
X185301755Y-88943409D02*
X185301755Y-89038647D01*
X185301755Y-89038647D02*
X185777945Y-89133885D01*
X184873183Y-89467219D02*
X184873183Y-88800552D01*
X184873183Y-88991028D02*
X184825564Y-88895790D01*
X184825564Y-88895790D02*
X184777945Y-88848171D01*
X184777945Y-88848171D02*
X184682707Y-88800552D01*
X184682707Y-88800552D02*
X184587469Y-88800552D01*
X184254135Y-89467219D02*
X184254135Y-88800552D01*
X184254135Y-88467219D02*
X184301754Y-88514838D01*
X184301754Y-88514838D02*
X184254135Y-88562457D01*
X184254135Y-88562457D02*
X184206516Y-88514838D01*
X184206516Y-88514838D02*
X184254135Y-88467219D01*
X184254135Y-88467219D02*
X184254135Y-88562457D01*
X183777945Y-88800552D02*
X183777945Y-89800552D01*
X183777945Y-88848171D02*
X183682707Y-88800552D01*
X183682707Y-88800552D02*
X183492231Y-88800552D01*
X183492231Y-88800552D02*
X183396993Y-88848171D01*
X183396993Y-88848171D02*
X183349374Y-88895790D01*
X183349374Y-88895790D02*
X183301755Y-88991028D01*
X183301755Y-88991028D02*
X183301755Y-89276742D01*
X183301755Y-89276742D02*
X183349374Y-89371980D01*
X183349374Y-89371980D02*
X183396993Y-89419600D01*
X183396993Y-89419600D02*
X183492231Y-89467219D01*
X183492231Y-89467219D02*
X183682707Y-89467219D01*
X183682707Y-89467219D02*
X183777945Y-89419600D01*
X182873183Y-89467219D02*
X182873183Y-88467219D01*
X182444612Y-89467219D02*
X182444612Y-88943409D01*
X182444612Y-88943409D02*
X182492231Y-88848171D01*
X182492231Y-88848171D02*
X182587469Y-88800552D01*
X182587469Y-88800552D02*
X182730326Y-88800552D01*
X182730326Y-88800552D02*
X182825564Y-88848171D01*
X182825564Y-88848171D02*
X182873183Y-88895790D01*
X181587469Y-89419600D02*
X181682707Y-89467219D01*
X181682707Y-89467219D02*
X181873183Y-89467219D01*
X181873183Y-89467219D02*
X181968421Y-89419600D01*
X181968421Y-89419600D02*
X182016040Y-89324361D01*
X182016040Y-89324361D02*
X182016040Y-88943409D01*
X182016040Y-88943409D02*
X181968421Y-88848171D01*
X181968421Y-88848171D02*
X181873183Y-88800552D01*
X181873183Y-88800552D02*
X181682707Y-88800552D01*
X181682707Y-88800552D02*
X181587469Y-88848171D01*
X181587469Y-88848171D02*
X181539850Y-88943409D01*
X181539850Y-88943409D02*
X181539850Y-89038647D01*
X181539850Y-89038647D02*
X182016040Y-89133885D01*
X181111278Y-89467219D02*
X181111278Y-88800552D01*
X181111278Y-88991028D02*
X181063659Y-88895790D01*
X181063659Y-88895790D02*
X181016040Y-88848171D01*
X181016040Y-88848171D02*
X180920802Y-88800552D01*
X180920802Y-88800552D02*
X180825564Y-88800552D01*
X180063659Y-89467219D02*
X180063659Y-88943409D01*
X180063659Y-88943409D02*
X180111278Y-88848171D01*
X180111278Y-88848171D02*
X180206516Y-88800552D01*
X180206516Y-88800552D02*
X180396992Y-88800552D01*
X180396992Y-88800552D02*
X180492230Y-88848171D01*
X180063659Y-89419600D02*
X180158897Y-89467219D01*
X180158897Y-89467219D02*
X180396992Y-89467219D01*
X180396992Y-89467219D02*
X180492230Y-89419600D01*
X180492230Y-89419600D02*
X180539849Y-89324361D01*
X180539849Y-89324361D02*
X180539849Y-89229123D01*
X180539849Y-89229123D02*
X180492230Y-89133885D01*
X180492230Y-89133885D02*
X180396992Y-89086266D01*
X180396992Y-89086266D02*
X180158897Y-89086266D01*
X180158897Y-89086266D02*
X180063659Y-89038647D01*
X179444611Y-89467219D02*
X179539849Y-89419600D01*
X179539849Y-89419600D02*
X179587468Y-89324361D01*
X179587468Y-89324361D02*
X179587468Y-88467219D01*
X177968420Y-88943409D02*
X177825563Y-88991028D01*
X177825563Y-88991028D02*
X177777944Y-89038647D01*
X177777944Y-89038647D02*
X177730325Y-89133885D01*
X177730325Y-89133885D02*
X177730325Y-89276742D01*
X177730325Y-89276742D02*
X177777944Y-89371980D01*
X177777944Y-89371980D02*
X177825563Y-89419600D01*
X177825563Y-89419600D02*
X177920801Y-89467219D01*
X177920801Y-89467219D02*
X178301753Y-89467219D01*
X178301753Y-89467219D02*
X178301753Y-88467219D01*
X178301753Y-88467219D02*
X177968420Y-88467219D01*
X177968420Y-88467219D02*
X177873182Y-88514838D01*
X177873182Y-88514838D02*
X177825563Y-88562457D01*
X177825563Y-88562457D02*
X177777944Y-88657695D01*
X177777944Y-88657695D02*
X177777944Y-88752933D01*
X177777944Y-88752933D02*
X177825563Y-88848171D01*
X177825563Y-88848171D02*
X177873182Y-88895790D01*
X177873182Y-88895790D02*
X177968420Y-88943409D01*
X177968420Y-88943409D02*
X178301753Y-88943409D01*
X177158896Y-89467219D02*
X177254134Y-89419600D01*
X177254134Y-89419600D02*
X177301753Y-89371980D01*
X177301753Y-89371980D02*
X177349372Y-89276742D01*
X177349372Y-89276742D02*
X177349372Y-88991028D01*
X177349372Y-88991028D02*
X177301753Y-88895790D01*
X177301753Y-88895790D02*
X177254134Y-88848171D01*
X177254134Y-88848171D02*
X177158896Y-88800552D01*
X177158896Y-88800552D02*
X177016039Y-88800552D01*
X177016039Y-88800552D02*
X176920801Y-88848171D01*
X176920801Y-88848171D02*
X176873182Y-88895790D01*
X176873182Y-88895790D02*
X176825563Y-88991028D01*
X176825563Y-88991028D02*
X176825563Y-89276742D01*
X176825563Y-89276742D02*
X176873182Y-89371980D01*
X176873182Y-89371980D02*
X176920801Y-89419600D01*
X176920801Y-89419600D02*
X177016039Y-89467219D01*
X177016039Y-89467219D02*
X177158896Y-89467219D01*
X175968420Y-89467219D02*
X175968420Y-88943409D01*
X175968420Y-88943409D02*
X176016039Y-88848171D01*
X176016039Y-88848171D02*
X176111277Y-88800552D01*
X176111277Y-88800552D02*
X176301753Y-88800552D01*
X176301753Y-88800552D02*
X176396991Y-88848171D01*
X175968420Y-89419600D02*
X176063658Y-89467219D01*
X176063658Y-89467219D02*
X176301753Y-89467219D01*
X176301753Y-89467219D02*
X176396991Y-89419600D01*
X176396991Y-89419600D02*
X176444610Y-89324361D01*
X176444610Y-89324361D02*
X176444610Y-89229123D01*
X176444610Y-89229123D02*
X176396991Y-89133885D01*
X176396991Y-89133885D02*
X176301753Y-89086266D01*
X176301753Y-89086266D02*
X176063658Y-89086266D01*
X176063658Y-89086266D02*
X175968420Y-89038647D01*
X175492229Y-89467219D02*
X175492229Y-88800552D01*
X175492229Y-88991028D02*
X175444610Y-88895790D01*
X175444610Y-88895790D02*
X175396991Y-88848171D01*
X175396991Y-88848171D02*
X175301753Y-88800552D01*
X175301753Y-88800552D02*
X175206515Y-88800552D01*
X174444610Y-89467219D02*
X174444610Y-88467219D01*
X174444610Y-89419600D02*
X174539848Y-89467219D01*
X174539848Y-89467219D02*
X174730324Y-89467219D01*
X174730324Y-89467219D02*
X174825562Y-89419600D01*
X174825562Y-89419600D02*
X174873181Y-89371980D01*
X174873181Y-89371980D02*
X174920800Y-89276742D01*
X174920800Y-89276742D02*
X174920800Y-88991028D01*
X174920800Y-88991028D02*
X174873181Y-88895790D01*
X174873181Y-88895790D02*
X174825562Y-88848171D01*
X174825562Y-88848171D02*
X174730324Y-88800552D01*
X174730324Y-88800552D02*
X174539848Y-88800552D01*
X174539848Y-88800552D02*
X174444610Y-88848171D01*
X173301752Y-88800552D02*
X173063657Y-89467219D01*
X173063657Y-89467219D02*
X172825562Y-88800552D01*
X171920800Y-89467219D02*
X172492228Y-89467219D01*
X172206514Y-89467219D02*
X172206514Y-88467219D01*
X172206514Y-88467219D02*
X172301752Y-88610076D01*
X172301752Y-88610076D02*
X172396990Y-88705314D01*
X172396990Y-88705314D02*
X172492228Y-88752933D01*
X187330326Y-91667219D02*
X187330326Y-90667219D01*
X186901755Y-91667219D02*
X186901755Y-91143409D01*
X186901755Y-91143409D02*
X186949374Y-91048171D01*
X186949374Y-91048171D02*
X187044612Y-91000552D01*
X187044612Y-91000552D02*
X187187469Y-91000552D01*
X187187469Y-91000552D02*
X187282707Y-91048171D01*
X187282707Y-91048171D02*
X187330326Y-91095790D01*
X186568421Y-91000552D02*
X186187469Y-91000552D01*
X186425564Y-90667219D02*
X186425564Y-91524361D01*
X186425564Y-91524361D02*
X186377945Y-91619600D01*
X186377945Y-91619600D02*
X186282707Y-91667219D01*
X186282707Y-91667219D02*
X186187469Y-91667219D01*
X185996992Y-91000552D02*
X185616040Y-91000552D01*
X185854135Y-90667219D02*
X185854135Y-91524361D01*
X185854135Y-91524361D02*
X185806516Y-91619600D01*
X185806516Y-91619600D02*
X185711278Y-91667219D01*
X185711278Y-91667219D02*
X185616040Y-91667219D01*
X185282706Y-91000552D02*
X185282706Y-92000552D01*
X185282706Y-91048171D02*
X185187468Y-91000552D01*
X185187468Y-91000552D02*
X184996992Y-91000552D01*
X184996992Y-91000552D02*
X184901754Y-91048171D01*
X184901754Y-91048171D02*
X184854135Y-91095790D01*
X184854135Y-91095790D02*
X184806516Y-91191028D01*
X184806516Y-91191028D02*
X184806516Y-91476742D01*
X184806516Y-91476742D02*
X184854135Y-91571980D01*
X184854135Y-91571980D02*
X184901754Y-91619600D01*
X184901754Y-91619600D02*
X184996992Y-91667219D01*
X184996992Y-91667219D02*
X185187468Y-91667219D01*
X185187468Y-91667219D02*
X185282706Y-91619600D01*
X184425563Y-91619600D02*
X184330325Y-91667219D01*
X184330325Y-91667219D02*
X184139849Y-91667219D01*
X184139849Y-91667219D02*
X184044611Y-91619600D01*
X184044611Y-91619600D02*
X183996992Y-91524361D01*
X183996992Y-91524361D02*
X183996992Y-91476742D01*
X183996992Y-91476742D02*
X184044611Y-91381504D01*
X184044611Y-91381504D02*
X184139849Y-91333885D01*
X184139849Y-91333885D02*
X184282706Y-91333885D01*
X184282706Y-91333885D02*
X184377944Y-91286266D01*
X184377944Y-91286266D02*
X184425563Y-91191028D01*
X184425563Y-91191028D02*
X184425563Y-91143409D01*
X184425563Y-91143409D02*
X184377944Y-91048171D01*
X184377944Y-91048171D02*
X184282706Y-91000552D01*
X184282706Y-91000552D02*
X184139849Y-91000552D01*
X184139849Y-91000552D02*
X184044611Y-91048171D01*
X183568420Y-91571980D02*
X183520801Y-91619600D01*
X183520801Y-91619600D02*
X183568420Y-91667219D01*
X183568420Y-91667219D02*
X183616039Y-91619600D01*
X183616039Y-91619600D02*
X183568420Y-91571980D01*
X183568420Y-91571980D02*
X183568420Y-91667219D01*
X183568420Y-91048171D02*
X183520801Y-91095790D01*
X183520801Y-91095790D02*
X183568420Y-91143409D01*
X183568420Y-91143409D02*
X183616039Y-91095790D01*
X183616039Y-91095790D02*
X183568420Y-91048171D01*
X183568420Y-91048171D02*
X183568420Y-91143409D01*
X182377945Y-90619600D02*
X183235087Y-91905314D01*
X181330326Y-90619600D02*
X182187468Y-91905314D01*
X180568421Y-91667219D02*
X180568421Y-91143409D01*
X180568421Y-91143409D02*
X180616040Y-91048171D01*
X180616040Y-91048171D02*
X180711278Y-91000552D01*
X180711278Y-91000552D02*
X180901754Y-91000552D01*
X180901754Y-91000552D02*
X180996992Y-91048171D01*
X180568421Y-91619600D02*
X180663659Y-91667219D01*
X180663659Y-91667219D02*
X180901754Y-91667219D01*
X180901754Y-91667219D02*
X180996992Y-91619600D01*
X180996992Y-91619600D02*
X181044611Y-91524361D01*
X181044611Y-91524361D02*
X181044611Y-91429123D01*
X181044611Y-91429123D02*
X180996992Y-91333885D01*
X180996992Y-91333885D02*
X180901754Y-91286266D01*
X180901754Y-91286266D02*
X180663659Y-91286266D01*
X180663659Y-91286266D02*
X180568421Y-91238647D01*
X180092230Y-91000552D02*
X180092230Y-91667219D01*
X180092230Y-91095790D02*
X180044611Y-91048171D01*
X180044611Y-91048171D02*
X179949373Y-91000552D01*
X179949373Y-91000552D02*
X179806516Y-91000552D01*
X179806516Y-91000552D02*
X179711278Y-91048171D01*
X179711278Y-91048171D02*
X179663659Y-91143409D01*
X179663659Y-91143409D02*
X179663659Y-91667219D01*
X178758897Y-91667219D02*
X178758897Y-91143409D01*
X178758897Y-91143409D02*
X178806516Y-91048171D01*
X178806516Y-91048171D02*
X178901754Y-91000552D01*
X178901754Y-91000552D02*
X179092230Y-91000552D01*
X179092230Y-91000552D02*
X179187468Y-91048171D01*
X178758897Y-91619600D02*
X178854135Y-91667219D01*
X178854135Y-91667219D02*
X179092230Y-91667219D01*
X179092230Y-91667219D02*
X179187468Y-91619600D01*
X179187468Y-91619600D02*
X179235087Y-91524361D01*
X179235087Y-91524361D02*
X179235087Y-91429123D01*
X179235087Y-91429123D02*
X179187468Y-91333885D01*
X179187468Y-91333885D02*
X179092230Y-91286266D01*
X179092230Y-91286266D02*
X178854135Y-91286266D01*
X178854135Y-91286266D02*
X178758897Y-91238647D01*
X178139849Y-91667219D02*
X178235087Y-91619600D01*
X178235087Y-91619600D02*
X178282706Y-91524361D01*
X178282706Y-91524361D02*
X178282706Y-90667219D01*
X177616039Y-91667219D02*
X177711277Y-91619600D01*
X177711277Y-91619600D02*
X177758896Y-91571980D01*
X177758896Y-91571980D02*
X177806515Y-91476742D01*
X177806515Y-91476742D02*
X177806515Y-91191028D01*
X177806515Y-91191028D02*
X177758896Y-91095790D01*
X177758896Y-91095790D02*
X177711277Y-91048171D01*
X177711277Y-91048171D02*
X177616039Y-91000552D01*
X177616039Y-91000552D02*
X177473182Y-91000552D01*
X177473182Y-91000552D02*
X177377944Y-91048171D01*
X177377944Y-91048171D02*
X177330325Y-91095790D01*
X177330325Y-91095790D02*
X177282706Y-91191028D01*
X177282706Y-91191028D02*
X177282706Y-91476742D01*
X177282706Y-91476742D02*
X177330325Y-91571980D01*
X177330325Y-91571980D02*
X177377944Y-91619600D01*
X177377944Y-91619600D02*
X177473182Y-91667219D01*
X177473182Y-91667219D02*
X177616039Y-91667219D01*
X176425563Y-91000552D02*
X176425563Y-91810076D01*
X176425563Y-91810076D02*
X176473182Y-91905314D01*
X176473182Y-91905314D02*
X176520801Y-91952933D01*
X176520801Y-91952933D02*
X176616039Y-92000552D01*
X176616039Y-92000552D02*
X176758896Y-92000552D01*
X176758896Y-92000552D02*
X176854134Y-91952933D01*
X176425563Y-91619600D02*
X176520801Y-91667219D01*
X176520801Y-91667219D02*
X176711277Y-91667219D01*
X176711277Y-91667219D02*
X176806515Y-91619600D01*
X176806515Y-91619600D02*
X176854134Y-91571980D01*
X176854134Y-91571980D02*
X176901753Y-91476742D01*
X176901753Y-91476742D02*
X176901753Y-91191028D01*
X176901753Y-91191028D02*
X176854134Y-91095790D01*
X176854134Y-91095790D02*
X176806515Y-91048171D01*
X176806515Y-91048171D02*
X176711277Y-91000552D01*
X176711277Y-91000552D02*
X176520801Y-91000552D01*
X176520801Y-91000552D02*
X176425563Y-91048171D01*
X175520801Y-91667219D02*
X175520801Y-90667219D01*
X175520801Y-91619600D02*
X175616039Y-91667219D01*
X175616039Y-91667219D02*
X175806515Y-91667219D01*
X175806515Y-91667219D02*
X175901753Y-91619600D01*
X175901753Y-91619600D02*
X175949372Y-91571980D01*
X175949372Y-91571980D02*
X175996991Y-91476742D01*
X175996991Y-91476742D02*
X175996991Y-91191028D01*
X175996991Y-91191028D02*
X175949372Y-91095790D01*
X175949372Y-91095790D02*
X175901753Y-91048171D01*
X175901753Y-91048171D02*
X175806515Y-91000552D01*
X175806515Y-91000552D02*
X175616039Y-91000552D01*
X175616039Y-91000552D02*
X175520801Y-91048171D01*
X174616039Y-91667219D02*
X174616039Y-91143409D01*
X174616039Y-91143409D02*
X174663658Y-91048171D01*
X174663658Y-91048171D02*
X174758896Y-91000552D01*
X174758896Y-91000552D02*
X174949372Y-91000552D01*
X174949372Y-91000552D02*
X175044610Y-91048171D01*
X174616039Y-91619600D02*
X174711277Y-91667219D01*
X174711277Y-91667219D02*
X174949372Y-91667219D01*
X174949372Y-91667219D02*
X175044610Y-91619600D01*
X175044610Y-91619600D02*
X175092229Y-91524361D01*
X175092229Y-91524361D02*
X175092229Y-91429123D01*
X175092229Y-91429123D02*
X175044610Y-91333885D01*
X175044610Y-91333885D02*
X174949372Y-91286266D01*
X174949372Y-91286266D02*
X174711277Y-91286266D01*
X174711277Y-91286266D02*
X174616039Y-91238647D01*
X174282705Y-91000552D02*
X173901753Y-91000552D01*
X174139848Y-90667219D02*
X174139848Y-91524361D01*
X174139848Y-91524361D02*
X174092229Y-91619600D01*
X174092229Y-91619600D02*
X173996991Y-91667219D01*
X173996991Y-91667219D02*
X173901753Y-91667219D01*
X173139848Y-91667219D02*
X173139848Y-91143409D01*
X173139848Y-91143409D02*
X173187467Y-91048171D01*
X173187467Y-91048171D02*
X173282705Y-91000552D01*
X173282705Y-91000552D02*
X173473181Y-91000552D01*
X173473181Y-91000552D02*
X173568419Y-91048171D01*
X173139848Y-91619600D02*
X173235086Y-91667219D01*
X173235086Y-91667219D02*
X173473181Y-91667219D01*
X173473181Y-91667219D02*
X173568419Y-91619600D01*
X173568419Y-91619600D02*
X173616038Y-91524361D01*
X173616038Y-91524361D02*
X173616038Y-91429123D01*
X173616038Y-91429123D02*
X173568419Y-91333885D01*
X173568419Y-91333885D02*
X173473181Y-91286266D01*
X173473181Y-91286266D02*
X173235086Y-91286266D01*
X173235086Y-91286266D02*
X173139848Y-91238647D01*
X172663657Y-91571980D02*
X172616038Y-91619600D01*
X172616038Y-91619600D02*
X172663657Y-91667219D01*
X172663657Y-91667219D02*
X172711276Y-91619600D01*
X172711276Y-91619600D02*
X172663657Y-91571980D01*
X172663657Y-91571980D02*
X172663657Y-91667219D01*
X172187467Y-91667219D02*
X172187467Y-91000552D01*
X172187467Y-90667219D02*
X172235086Y-90714838D01*
X172235086Y-90714838D02*
X172187467Y-90762457D01*
X172187467Y-90762457D02*
X172139848Y-90714838D01*
X172139848Y-90714838D02*
X172187467Y-90667219D01*
X172187467Y-90667219D02*
X172187467Y-90762457D01*
X171568420Y-91667219D02*
X171663658Y-91619600D01*
X171663658Y-91619600D02*
X171711277Y-91571980D01*
X171711277Y-91571980D02*
X171758896Y-91476742D01*
X171758896Y-91476742D02*
X171758896Y-91191028D01*
X171758896Y-91191028D02*
X171711277Y-91095790D01*
X171711277Y-91095790D02*
X171663658Y-91048171D01*
X171663658Y-91048171D02*
X171568420Y-91000552D01*
X171568420Y-91000552D02*
X171425563Y-91000552D01*
X171425563Y-91000552D02*
X171330325Y-91048171D01*
X171330325Y-91048171D02*
X171282706Y-91095790D01*
X171282706Y-91095790D02*
X171235087Y-91191028D01*
X171235087Y-91191028D02*
X171235087Y-91476742D01*
X171235087Y-91476742D02*
X171282706Y-91571980D01*
X171282706Y-91571980D02*
X171330325Y-91619600D01*
X171330325Y-91619600D02*
X171425563Y-91667219D01*
X171425563Y-91667219D02*
X171568420Y-91667219D01*
D11*
%TO.C,G1*%
X179719163Y-93133788D02*
X179720843Y-93133913D01*
X179722516Y-93134119D01*
X179724178Y-93134404D01*
X179725826Y-93134765D01*
X179727459Y-93135201D01*
X179729074Y-93135710D01*
X179730669Y-93136290D01*
X179732240Y-93136938D01*
X179733785Y-93137652D01*
X179736789Y-93139272D01*
X179739661Y-93141133D01*
X179742380Y-93143219D01*
X179744926Y-93145512D01*
X179747279Y-93147997D01*
X179749420Y-93150656D01*
X179750405Y-93152046D01*
X179751328Y-93153474D01*
X179752189Y-93154937D01*
X179752984Y-93156434D01*
X179753710Y-93157961D01*
X179754366Y-93159518D01*
X179754949Y-93161103D01*
X179755456Y-93162712D01*
X179755885Y-93164345D01*
X179756233Y-93165998D01*
X179896215Y-93918247D01*
X179896998Y-93921586D01*
X179898073Y-93924937D01*
X179899422Y-93928277D01*
X179901027Y-93931585D01*
X179902867Y-93934839D01*
X179904925Y-93938016D01*
X179907183Y-93941096D01*
X179909621Y-93944056D01*
X179912220Y-93946875D01*
X179914963Y-93949530D01*
X179917830Y-93952000D01*
X179920803Y-93954263D01*
X179923863Y-93956297D01*
X179926992Y-93958081D01*
X179930170Y-93959591D01*
X179933379Y-93960808D01*
X180437607Y-94167197D01*
X180440747Y-94168576D01*
X180444076Y-94169728D01*
X180447564Y-94170654D01*
X180451182Y-94171358D01*
X180454901Y-94171840D01*
X180458691Y-94172104D01*
X180462524Y-94172150D01*
X180466370Y-94171981D01*
X180470200Y-94171599D01*
X180473984Y-94171006D01*
X180477694Y-94170203D01*
X180481301Y-94169194D01*
X180484774Y-94167979D01*
X180488085Y-94166562D01*
X180491205Y-94164943D01*
X180494104Y-94163126D01*
X181122520Y-93731853D01*
X181123940Y-93730931D01*
X181125401Y-93730080D01*
X181126902Y-93729302D01*
X181128437Y-93728594D01*
X181130005Y-93727957D01*
X181131603Y-93727391D01*
X181134871Y-93726469D01*
X181138217Y-93725827D01*
X181141614Y-93725460D01*
X181145038Y-93725369D01*
X181148462Y-93725549D01*
X181151861Y-93725998D01*
X181155208Y-93726715D01*
X181158479Y-93727697D01*
X181161647Y-93728942D01*
X181164686Y-93730447D01*
X181166150Y-93731296D01*
X181167572Y-93732209D01*
X181168949Y-93733187D01*
X181170278Y-93734227D01*
X181171555Y-93735332D01*
X181172778Y-93736499D01*
X181702091Y-94265767D01*
X181703255Y-94266994D01*
X181704356Y-94268275D01*
X181705394Y-94269608D01*
X181706368Y-94270988D01*
X181707280Y-94272413D01*
X181708127Y-94273879D01*
X181708911Y-94275384D01*
X181709630Y-94276924D01*
X181710284Y-94278495D01*
X181710873Y-94280095D01*
X181711855Y-94283369D01*
X181712573Y-94286718D01*
X181713024Y-94290117D01*
X181713207Y-94293540D01*
X181713117Y-94296963D01*
X181712754Y-94300358D01*
X181712469Y-94302037D01*
X181712114Y-94303700D01*
X181711689Y-94305343D01*
X181711194Y-94306964D01*
X181710629Y-94308558D01*
X181709993Y-94310123D01*
X181709286Y-94311656D01*
X181708508Y-94313152D01*
X181707658Y-94314610D01*
X181706736Y-94316026D01*
X181282940Y-94933646D01*
X181281133Y-94936565D01*
X181279529Y-94939697D01*
X181278130Y-94943012D01*
X181276937Y-94946483D01*
X181275954Y-94950080D01*
X181275181Y-94953775D01*
X181274620Y-94957540D01*
X181274274Y-94961347D01*
X181274144Y-94965167D01*
X181274232Y-94968971D01*
X181274540Y-94972731D01*
X181275070Y-94976419D01*
X181275823Y-94980006D01*
X181276802Y-94983464D01*
X181278009Y-94986764D01*
X181279445Y-94989877D01*
X181502425Y-95509988D01*
X181503020Y-95511587D01*
X181503690Y-95513181D01*
X181505247Y-95516346D01*
X181507075Y-95519462D01*
X181509151Y-95522512D01*
X181511454Y-95525475D01*
X181513962Y-95528334D01*
X181516652Y-95531070D01*
X181519503Y-95533663D01*
X181522493Y-95536095D01*
X181525600Y-95538347D01*
X181528802Y-95540399D01*
X181532078Y-95542234D01*
X181535404Y-95543833D01*
X181538761Y-95545175D01*
X181542124Y-95546244D01*
X181543802Y-95546669D01*
X181545473Y-95547019D01*
X182272726Y-95682267D01*
X182274383Y-95682623D01*
X182276019Y-95683059D01*
X182277631Y-95683572D01*
X182279218Y-95684161D01*
X182280777Y-95684822D01*
X182282306Y-95685553D01*
X182283804Y-95686352D01*
X182285268Y-95687217D01*
X182286697Y-95688143D01*
X182288087Y-95689131D01*
X182289438Y-95690175D01*
X182290746Y-95691276D01*
X182292011Y-95692429D01*
X182293230Y-95693633D01*
X182294401Y-95694884D01*
X182295521Y-95696181D01*
X182296590Y-95697521D01*
X182297604Y-95698902D01*
X182298563Y-95700321D01*
X182299463Y-95701775D01*
X182300303Y-95703263D01*
X182301080Y-95704781D01*
X182301793Y-95706328D01*
X182302440Y-95707900D01*
X182303018Y-95709496D01*
X182303526Y-95711112D01*
X182303961Y-95712747D01*
X182304322Y-95714398D01*
X182304606Y-95716062D01*
X182304811Y-95717738D01*
X182304936Y-95719422D01*
X182304978Y-95721112D01*
X182304934Y-96469644D01*
X182304892Y-96471334D01*
X182304766Y-96473019D01*
X182304560Y-96474697D01*
X182304276Y-96476363D01*
X182303914Y-96478017D01*
X182303478Y-96479655D01*
X182302969Y-96481275D01*
X182302389Y-96482875D01*
X182301027Y-96486002D01*
X182299407Y-96489016D01*
X182297546Y-96491897D01*
X182295461Y-96494625D01*
X182293167Y-96497179D01*
X182290683Y-96499539D01*
X182288023Y-96501684D01*
X182286633Y-96502670D01*
X182285205Y-96503595D01*
X182283742Y-96504457D01*
X182282246Y-96505252D01*
X182280718Y-96505978D01*
X182279161Y-96506633D01*
X182277577Y-96507214D01*
X182275967Y-96507719D01*
X182274335Y-96508145D01*
X182272681Y-96508489D01*
X181563258Y-96640507D01*
X181561591Y-96640850D01*
X181559921Y-96641269D01*
X181556576Y-96642331D01*
X181553246Y-96643674D01*
X181549952Y-96645277D01*
X181546715Y-96647122D01*
X181543558Y-96649190D01*
X181540503Y-96651460D01*
X181537570Y-96653913D01*
X181534782Y-96656530D01*
X181532161Y-96659292D01*
X181529727Y-96662178D01*
X181527503Y-96665170D01*
X181525511Y-96668248D01*
X181523771Y-96671393D01*
X181522307Y-96674584D01*
X181521685Y-96676192D01*
X181521139Y-96677804D01*
X181299663Y-97231052D01*
X181298292Y-97234198D01*
X181297149Y-97237531D01*
X181296230Y-97241021D01*
X181295535Y-97244639D01*
X181295061Y-97248356D01*
X181294806Y-97252143D01*
X181294768Y-97255972D01*
X181294945Y-97259814D01*
X181295336Y-97263640D01*
X181295937Y-97267421D01*
X181296748Y-97271128D01*
X181297765Y-97274733D01*
X181298988Y-97278206D01*
X181300414Y-97281519D01*
X181302040Y-97284643D01*
X181303866Y-97287548D01*
X181706824Y-97874775D01*
X181707742Y-97876191D01*
X181708588Y-97877649D01*
X181709364Y-97879146D01*
X181710068Y-97880680D01*
X181710702Y-97882246D01*
X181711265Y-97883841D01*
X181712182Y-97887108D01*
X181712821Y-97890453D01*
X181713185Y-97893852D01*
X181713275Y-97897278D01*
X181713095Y-97900706D01*
X181712646Y-97904109D01*
X181711930Y-97907462D01*
X181710951Y-97910739D01*
X181709710Y-97913914D01*
X181708210Y-97916961D01*
X181707364Y-97918429D01*
X181706453Y-97919855D01*
X181705479Y-97921236D01*
X181704442Y-97922569D01*
X181703342Y-97923850D01*
X181702178Y-97925077D01*
X181172821Y-98454346D01*
X181171599Y-98455506D01*
X181170321Y-98456602D01*
X181168992Y-98457636D01*
X181167615Y-98458607D01*
X181166193Y-98459515D01*
X181164730Y-98460358D01*
X181163227Y-98461138D01*
X181161690Y-98461854D01*
X181160120Y-98462505D01*
X181158522Y-98463091D01*
X181155251Y-98464067D01*
X181151904Y-98464781D01*
X181148505Y-98465230D01*
X181145081Y-98465411D01*
X181141658Y-98465322D01*
X181138260Y-98464961D01*
X181136579Y-98464677D01*
X181134914Y-98464325D01*
X181133269Y-98463904D01*
X181131646Y-98463413D01*
X181130049Y-98462852D01*
X181128481Y-98462221D01*
X181126945Y-98461519D01*
X181125445Y-98460747D01*
X181123983Y-98459904D01*
X181122563Y-98458990D01*
X180545734Y-98063067D01*
X180542834Y-98061269D01*
X180539727Y-98059692D01*
X180536441Y-98058336D01*
X180533005Y-98057201D01*
X180529448Y-98056290D01*
X180525798Y-98055602D01*
X180522083Y-98055138D01*
X180518331Y-98054899D01*
X180514572Y-98054885D01*
X180510834Y-98055097D01*
X180507145Y-98055537D01*
X180503533Y-98056204D01*
X180500028Y-98057099D01*
X180496657Y-98058223D01*
X180493448Y-98059576D01*
X180490432Y-98061160D01*
X180236040Y-98196983D01*
X180234522Y-98197711D01*
X180232992Y-98198350D01*
X180231451Y-98198903D01*
X180229903Y-98199370D01*
X180228349Y-98199751D01*
X180226793Y-98200049D01*
X180225237Y-98200264D01*
X180223684Y-98200396D01*
X180222136Y-98200448D01*
X180220597Y-98200420D01*
X180219068Y-98200312D01*
X180217554Y-98200127D01*
X180216055Y-98199865D01*
X180214576Y-98199526D01*
X180213118Y-98199113D01*
X180211684Y-98198626D01*
X180210278Y-98198066D01*
X180208901Y-98197434D01*
X180207556Y-98196731D01*
X180206246Y-98195958D01*
X180204974Y-98195115D01*
X180203742Y-98194205D01*
X180202554Y-98193228D01*
X180201411Y-98192185D01*
X180200316Y-98191077D01*
X180199272Y-98189906D01*
X180198282Y-98188671D01*
X180197349Y-98187374D01*
X180196474Y-98186016D01*
X180195661Y-98184598D01*
X180194913Y-98183121D01*
X180194231Y-98181587D01*
X179669696Y-96914183D01*
X179669085Y-96912607D01*
X179668555Y-96911006D01*
X179668104Y-96909385D01*
X179667732Y-96907745D01*
X179667437Y-96906091D01*
X179667218Y-96904424D01*
X179667006Y-96901068D01*
X179667088Y-96897701D01*
X179667456Y-96894346D01*
X179668101Y-96891028D01*
X179669016Y-96887771D01*
X179670193Y-96884599D01*
X179671624Y-96881536D01*
X179673300Y-96878606D01*
X179675215Y-96875833D01*
X179677359Y-96873243D01*
X179678515Y-96872023D01*
X179679726Y-96870857D01*
X179680990Y-96869749D01*
X179682306Y-96868702D01*
X179683674Y-96867718D01*
X179685093Y-96866800D01*
X179748757Y-96827823D01*
X179753352Y-96824904D01*
X179758252Y-96821573D01*
X179763366Y-96817902D01*
X179768606Y-96813964D01*
X179773880Y-96809830D01*
X179779100Y-96805575D01*
X179784176Y-96801269D01*
X179789018Y-96796986D01*
X179831155Y-96768139D01*
X179871371Y-96736818D01*
X179909555Y-96703132D01*
X179945598Y-96667191D01*
X179979389Y-96629103D01*
X180010819Y-96588978D01*
X180039778Y-96546925D01*
X180066155Y-96503052D01*
X180089841Y-96457470D01*
X180100641Y-96434072D01*
X180110726Y-96410287D01*
X180120084Y-96386130D01*
X180128699Y-96361613D01*
X180136560Y-96336750D01*
X180143652Y-96311556D01*
X180149960Y-96286043D01*
X180155472Y-96260225D01*
X180160174Y-96234117D01*
X180164052Y-96207731D01*
X180167092Y-96181081D01*
X180169280Y-96154181D01*
X180170604Y-96127045D01*
X180171048Y-96099686D01*
X180169970Y-96057086D01*
X180166773Y-96015045D01*
X180161509Y-95973616D01*
X180154228Y-95932850D01*
X180144984Y-95892799D01*
X180133828Y-95853516D01*
X180120812Y-95815052D01*
X180105989Y-95777459D01*
X180089410Y-95740790D01*
X180071128Y-95705096D01*
X180051194Y-95670430D01*
X180029661Y-95636843D01*
X180006580Y-95604388D01*
X179982004Y-95573115D01*
X179955984Y-95543079D01*
X179928574Y-95514329D01*
X179899823Y-95486920D01*
X179869786Y-95460901D01*
X179838513Y-95436326D01*
X179806057Y-95413247D01*
X179772470Y-95391715D01*
X179737803Y-95371783D01*
X179702110Y-95353502D01*
X179665441Y-95336924D01*
X179627850Y-95322102D01*
X179589387Y-95309088D01*
X179550105Y-95297933D01*
X179510057Y-95288690D01*
X179469293Y-95281410D01*
X179427867Y-95276146D01*
X179385829Y-95272949D01*
X179343233Y-95271872D01*
X179300637Y-95272949D01*
X179258600Y-95276146D01*
X179217174Y-95281410D01*
X179176411Y-95288690D01*
X179136364Y-95297933D01*
X179097083Y-95309088D01*
X179058622Y-95322102D01*
X179021032Y-95336924D01*
X178984365Y-95353502D01*
X178948673Y-95371783D01*
X178914009Y-95391715D01*
X178880423Y-95413247D01*
X178847969Y-95436327D01*
X178816699Y-95460902D01*
X178786663Y-95486920D01*
X178757915Y-95514330D01*
X178730506Y-95543079D01*
X178704489Y-95573116D01*
X178679914Y-95604388D01*
X178656836Y-95636843D01*
X178635304Y-95670430D01*
X178615372Y-95705097D01*
X178597092Y-95740791D01*
X178580514Y-95777460D01*
X178565693Y-95815052D01*
X178552678Y-95853516D01*
X178541524Y-95892799D01*
X178532280Y-95932850D01*
X178525001Y-95973616D01*
X178519736Y-96015045D01*
X178516540Y-96057086D01*
X178515463Y-96099686D01*
X178517229Y-96154181D01*
X178522457Y-96207731D01*
X178531034Y-96260225D01*
X178542853Y-96311556D01*
X178557802Y-96361613D01*
X178575773Y-96410287D01*
X178596655Y-96457470D01*
X178620339Y-96503052D01*
X178646714Y-96546925D01*
X178675672Y-96588978D01*
X178707102Y-96629103D01*
X178740894Y-96667191D01*
X178776939Y-96703132D01*
X178815128Y-96736818D01*
X178855349Y-96768139D01*
X178897494Y-96796986D01*
X178902308Y-96801269D01*
X178907367Y-96805574D01*
X178912577Y-96809830D01*
X178917845Y-96813964D01*
X178923081Y-96817902D01*
X178928191Y-96821573D01*
X178933083Y-96824904D01*
X178937666Y-96827823D01*
X179001330Y-96866800D01*
X179002741Y-96867717D01*
X179004102Y-96868702D01*
X179005412Y-96869749D01*
X179006670Y-96870857D01*
X179007876Y-96872022D01*
X179009027Y-96873242D01*
X179010124Y-96874513D01*
X179011165Y-96875833D01*
X179012149Y-96877198D01*
X179013075Y-96878605D01*
X179013942Y-96880052D01*
X179014749Y-96881535D01*
X179015495Y-96883051D01*
X179016179Y-96884598D01*
X179016800Y-96886172D01*
X179017357Y-96887770D01*
X179017849Y-96889389D01*
X179018275Y-96891027D01*
X179018634Y-96892680D01*
X179018924Y-96894345D01*
X179019146Y-96896020D01*
X179019297Y-96897700D01*
X179019377Y-96899384D01*
X179019385Y-96901068D01*
X179019320Y-96902749D01*
X179019180Y-96904424D01*
X179018965Y-96906090D01*
X179018674Y-96907745D01*
X179018306Y-96909384D01*
X179017859Y-96911006D01*
X179017333Y-96912607D01*
X179016726Y-96914183D01*
X178492235Y-98181632D01*
X178491554Y-98183167D01*
X178490806Y-98184644D01*
X178489994Y-98186061D01*
X178489120Y-98187418D01*
X178488187Y-98188714D01*
X178487198Y-98189948D01*
X178486156Y-98191119D01*
X178485062Y-98192226D01*
X178483920Y-98193267D01*
X178482733Y-98194243D01*
X178481503Y-98195151D01*
X178480232Y-98195992D01*
X178478924Y-98196763D01*
X178477580Y-98197465D01*
X178476204Y-98198096D01*
X178474799Y-98198655D01*
X178473366Y-98199141D01*
X178471909Y-98199553D01*
X178470430Y-98199890D01*
X178468932Y-98200152D01*
X178467418Y-98200337D01*
X178465889Y-98200444D01*
X178464350Y-98200473D01*
X178462802Y-98200421D01*
X178461248Y-98200290D01*
X178459690Y-98200076D01*
X178458132Y-98199781D01*
X178456577Y-98199401D01*
X178455026Y-98198937D01*
X178453482Y-98198388D01*
X178451948Y-98197752D01*
X178450427Y-98197028D01*
X178196035Y-98061205D01*
X178193011Y-98059619D01*
X178189797Y-98058263D01*
X178186422Y-98057135D01*
X178182914Y-98056237D01*
X178179302Y-98055567D01*
X178175613Y-98055125D01*
X178171875Y-98054910D01*
X178168118Y-98054922D01*
X178164369Y-98055160D01*
X178160657Y-98055623D01*
X178157009Y-98056312D01*
X178153455Y-98057225D01*
X178150022Y-98058362D01*
X178146738Y-98059723D01*
X178143632Y-98061307D01*
X178140733Y-98063112D01*
X177563859Y-98459035D01*
X177562443Y-98459949D01*
X177560985Y-98460792D01*
X177559487Y-98461564D01*
X177557954Y-98462265D01*
X177556388Y-98462896D01*
X177554793Y-98463456D01*
X177551527Y-98464369D01*
X177548183Y-98465005D01*
X177544786Y-98465366D01*
X177541363Y-98465455D01*
X177537939Y-98465274D01*
X177534540Y-98464826D01*
X177531193Y-98464113D01*
X177527924Y-98463136D01*
X177524757Y-98461899D01*
X177521720Y-98460404D01*
X177520258Y-98459560D01*
X177518839Y-98458653D01*
X177517464Y-98457682D01*
X177516138Y-98456648D01*
X177514864Y-98455551D01*
X177513645Y-98454392D01*
X176984287Y-97925123D01*
X176983120Y-97923896D01*
X176982016Y-97922614D01*
X176980975Y-97921281D01*
X176979997Y-97919900D01*
X176979084Y-97918474D01*
X176978235Y-97917006D01*
X176977450Y-97915500D01*
X176976730Y-97913959D01*
X176976075Y-97912386D01*
X176975485Y-97910784D01*
X176974504Y-97907507D01*
X176973787Y-97904154D01*
X176973337Y-97900751D01*
X176973157Y-97897323D01*
X176973249Y-97893897D01*
X176973615Y-97890498D01*
X176973902Y-97888817D01*
X176974258Y-97887153D01*
X176974684Y-97885508D01*
X176975180Y-97883886D01*
X176975747Y-97882291D01*
X176976383Y-97880725D01*
X176977091Y-97879192D01*
X176977870Y-97877694D01*
X176978721Y-97876236D01*
X176979643Y-97874820D01*
X177382644Y-97287594D01*
X177384455Y-97284688D01*
X177386069Y-97281564D01*
X177387486Y-97278251D01*
X177388701Y-97274778D01*
X177389713Y-97271173D01*
X177390521Y-97267466D01*
X177391120Y-97263685D01*
X177391510Y-97259860D01*
X177391688Y-97256018D01*
X177391651Y-97252189D01*
X177391398Y-97248401D01*
X177390925Y-97244684D01*
X177390232Y-97241066D01*
X177389315Y-97237576D01*
X177388173Y-97234244D01*
X177386802Y-97231097D01*
X177165327Y-96677849D01*
X177164779Y-96676237D01*
X177164154Y-96674630D01*
X177162688Y-96671438D01*
X177160949Y-96668293D01*
X177158960Y-96665215D01*
X177156742Y-96662224D01*
X177154315Y-96659337D01*
X177151701Y-96656576D01*
X177148921Y-96653959D01*
X177145996Y-96651506D01*
X177142948Y-96649236D01*
X177139797Y-96647168D01*
X177136565Y-96645323D01*
X177133274Y-96643720D01*
X177129944Y-96642377D01*
X177128271Y-96641810D01*
X177126596Y-96641315D01*
X177124923Y-96640896D01*
X177123252Y-96640553D01*
X176413830Y-96508535D01*
X176412180Y-96508191D01*
X176410551Y-96507765D01*
X176408945Y-96507260D01*
X176407363Y-96506679D01*
X176405808Y-96506024D01*
X176404282Y-96505298D01*
X176402787Y-96504503D01*
X176401325Y-96503642D01*
X176399898Y-96502717D01*
X176398508Y-96501730D01*
X176397157Y-96500686D01*
X176395848Y-96499585D01*
X176394583Y-96498430D01*
X176393363Y-96497225D01*
X176392190Y-96495971D01*
X176391068Y-96494671D01*
X176389997Y-96493327D01*
X176388980Y-96491943D01*
X176388019Y-96490520D01*
X176387117Y-96489062D01*
X176386274Y-96487570D01*
X176385494Y-96486048D01*
X176384778Y-96484497D01*
X176384129Y-96482921D01*
X176383548Y-96481321D01*
X176383038Y-96479701D01*
X176382601Y-96478063D01*
X176382238Y-96476409D01*
X176381953Y-96474743D01*
X176381746Y-96473066D01*
X176381620Y-96471380D01*
X176381578Y-96469690D01*
X176381489Y-95721157D01*
X176381528Y-95719463D01*
X176381649Y-95717775D01*
X176381852Y-95716096D01*
X176382133Y-95714429D01*
X176382492Y-95712775D01*
X176382925Y-95711137D01*
X176383431Y-95709518D01*
X176384008Y-95707920D01*
X176384654Y-95706345D01*
X176385366Y-95704796D01*
X176386981Y-95701787D01*
X176388838Y-95698911D01*
X176390919Y-95696188D01*
X176393208Y-95693637D01*
X176395689Y-95691279D01*
X176398344Y-95689133D01*
X176401156Y-95687218D01*
X176402617Y-95686354D01*
X176404111Y-95685555D01*
X176405635Y-95684823D01*
X176407189Y-95684162D01*
X176408770Y-95683574D01*
X176410376Y-95683060D01*
X176412005Y-95682624D01*
X176413654Y-95682268D01*
X176413653Y-95682268D01*
X177140951Y-95547019D01*
X177144285Y-95546244D01*
X177147636Y-95545176D01*
X177150983Y-95543833D01*
X177154303Y-95542235D01*
X177157574Y-95540400D01*
X177160773Y-95538348D01*
X177163880Y-95536096D01*
X177166871Y-95533664D01*
X177169725Y-95531071D01*
X177172419Y-95528336D01*
X177174931Y-95525477D01*
X177177240Y-95522513D01*
X177179324Y-95519463D01*
X177181159Y-95516347D01*
X177182724Y-95513182D01*
X177183997Y-95509989D01*
X177406934Y-94989878D01*
X177408377Y-94986764D01*
X177409590Y-94983465D01*
X177410575Y-94980007D01*
X177411333Y-94976420D01*
X177411866Y-94972732D01*
X177412175Y-94968972D01*
X177412264Y-94965167D01*
X177412133Y-94961348D01*
X177411784Y-94957541D01*
X177411218Y-94953776D01*
X177410439Y-94950080D01*
X177409447Y-94946483D01*
X177408245Y-94943013D01*
X177406833Y-94939698D01*
X177405215Y-94936566D01*
X177403391Y-94933647D01*
X176979641Y-94316027D01*
X176978726Y-94314611D01*
X176977883Y-94313153D01*
X176977110Y-94311656D01*
X176976407Y-94310124D01*
X176975775Y-94308559D01*
X176975212Y-94306964D01*
X176974295Y-94303700D01*
X176973654Y-94300358D01*
X176973288Y-94296963D01*
X176973194Y-94293541D01*
X176973370Y-94290117D01*
X176973815Y-94286718D01*
X176974527Y-94283369D01*
X176975503Y-94280096D01*
X176976742Y-94276924D01*
X176978241Y-94273880D01*
X176979088Y-94272414D01*
X176980000Y-94270989D01*
X176980975Y-94269608D01*
X176982015Y-94268276D01*
X176983118Y-94266995D01*
X176984285Y-94265768D01*
X177513553Y-93736500D01*
X177514780Y-93735332D01*
X177516061Y-93734228D01*
X177517393Y-93733187D01*
X177518772Y-93732210D01*
X177520196Y-93731296D01*
X177521661Y-93730447D01*
X177523165Y-93729662D01*
X177524703Y-93728942D01*
X177526273Y-93728287D01*
X177527871Y-93727698D01*
X177531141Y-93726716D01*
X177534485Y-93725999D01*
X177537880Y-93725550D01*
X177541300Y-93725370D01*
X177544718Y-93725461D01*
X177548109Y-93725828D01*
X177549786Y-93726114D01*
X177551448Y-93726470D01*
X177553089Y-93726896D01*
X177554708Y-93727392D01*
X177556302Y-93727958D01*
X177557866Y-93728595D01*
X177559397Y-93729303D01*
X177560894Y-93730081D01*
X177562351Y-93730932D01*
X177563767Y-93731854D01*
X178192227Y-94163127D01*
X178195134Y-94164944D01*
X178198260Y-94166563D01*
X178201577Y-94167980D01*
X178205055Y-94169195D01*
X178208665Y-94170204D01*
X178212378Y-94171006D01*
X178216164Y-94171599D01*
X178219995Y-94171981D01*
X178223840Y-94172150D01*
X178227671Y-94172104D01*
X178231459Y-94171841D01*
X178235175Y-94171358D01*
X178238788Y-94170655D01*
X178242270Y-94169728D01*
X178245592Y-94168577D01*
X178248725Y-94167198D01*
X178752908Y-93960809D01*
X178754512Y-93960239D01*
X178756110Y-93959592D01*
X178757701Y-93958872D01*
X178759283Y-93958081D01*
X178762408Y-93956298D01*
X178765465Y-93954264D01*
X178768437Y-93952001D01*
X178771304Y-93949531D01*
X178774048Y-93946876D01*
X178776650Y-93944057D01*
X178779090Y-93941097D01*
X178781350Y-93938017D01*
X178783411Y-93934840D01*
X178785254Y-93931586D01*
X178786860Y-93928278D01*
X178788211Y-93924938D01*
X178789288Y-93921587D01*
X178789718Y-93919915D01*
X178790071Y-93918248D01*
X178930098Y-93165998D01*
X178930446Y-93164345D01*
X178930875Y-93162712D01*
X178931382Y-93161103D01*
X178931965Y-93159518D01*
X178932621Y-93157961D01*
X178933348Y-93156434D01*
X178934143Y-93154937D01*
X178935004Y-93153474D01*
X178935928Y-93152046D01*
X178936913Y-93150656D01*
X178937956Y-93149305D01*
X178939055Y-93147997D01*
X178940207Y-93146731D01*
X178941410Y-93145512D01*
X178942661Y-93144340D01*
X178943958Y-93143219D01*
X178945298Y-93142149D01*
X178946679Y-93141133D01*
X178948098Y-93140174D01*
X178949553Y-93139272D01*
X178951042Y-93138431D01*
X178952561Y-93137652D01*
X178954109Y-93136938D01*
X178955682Y-93136290D01*
X178957279Y-93135710D01*
X178958896Y-93135201D01*
X178960532Y-93134765D01*
X178962184Y-93134404D01*
X178963849Y-93134119D01*
X178965525Y-93133913D01*
X178967209Y-93133788D01*
X178968899Y-93133745D01*
X179717477Y-93133745D01*
X179719163Y-93133788D01*
G36*
X179719163Y-93133788D02*
G01*
X179720843Y-93133913D01*
X179722516Y-93134119D01*
X179724178Y-93134404D01*
X179725826Y-93134765D01*
X179727459Y-93135201D01*
X179729074Y-93135710D01*
X179730669Y-93136290D01*
X179732240Y-93136938D01*
X179733785Y-93137652D01*
X179736789Y-93139272D01*
X179739661Y-93141133D01*
X179742380Y-93143219D01*
X179744926Y-93145512D01*
X179747279Y-93147997D01*
X179749420Y-93150656D01*
X179750405Y-93152046D01*
X179751328Y-93153474D01*
X179752189Y-93154937D01*
X179752984Y-93156434D01*
X179753710Y-93157961D01*
X179754366Y-93159518D01*
X179754949Y-93161103D01*
X179755456Y-93162712D01*
X179755885Y-93164345D01*
X179756233Y-93165998D01*
X179896215Y-93918247D01*
X179896998Y-93921586D01*
X179898073Y-93924937D01*
X179899422Y-93928277D01*
X179901027Y-93931585D01*
X179902867Y-93934839D01*
X179904925Y-93938016D01*
X179907183Y-93941096D01*
X179909621Y-93944056D01*
X179912220Y-93946875D01*
X179914963Y-93949530D01*
X179917830Y-93952000D01*
X179920803Y-93954263D01*
X179923863Y-93956297D01*
X179926992Y-93958081D01*
X179930170Y-93959591D01*
X179933379Y-93960808D01*
X180437607Y-94167197D01*
X180440747Y-94168576D01*
X180444076Y-94169728D01*
X180447564Y-94170654D01*
X180451182Y-94171358D01*
X180454901Y-94171840D01*
X180458691Y-94172104D01*
X180462524Y-94172150D01*
X180466370Y-94171981D01*
X180470200Y-94171599D01*
X180473984Y-94171006D01*
X180477694Y-94170203D01*
X180481301Y-94169194D01*
X180484774Y-94167979D01*
X180488085Y-94166562D01*
X180491205Y-94164943D01*
X180494104Y-94163126D01*
X181122520Y-93731853D01*
X181123940Y-93730931D01*
X181125401Y-93730080D01*
X181126902Y-93729302D01*
X181128437Y-93728594D01*
X181130005Y-93727957D01*
X181131603Y-93727391D01*
X181134871Y-93726469D01*
X181138217Y-93725827D01*
X181141614Y-93725460D01*
X181145038Y-93725369D01*
X181148462Y-93725549D01*
X181151861Y-93725998D01*
X181155208Y-93726715D01*
X181158479Y-93727697D01*
X181161647Y-93728942D01*
X181164686Y-93730447D01*
X181166150Y-93731296D01*
X181167572Y-93732209D01*
X181168949Y-93733187D01*
X181170278Y-93734227D01*
X181171555Y-93735332D01*
X181172778Y-93736499D01*
X181702091Y-94265767D01*
X181703255Y-94266994D01*
X181704356Y-94268275D01*
X181705394Y-94269608D01*
X181706368Y-94270988D01*
X181707280Y-94272413D01*
X181708127Y-94273879D01*
X181708911Y-94275384D01*
X181709630Y-94276924D01*
X181710284Y-94278495D01*
X181710873Y-94280095D01*
X181711855Y-94283369D01*
X181712573Y-94286718D01*
X181713024Y-94290117D01*
X181713207Y-94293540D01*
X181713117Y-94296963D01*
X181712754Y-94300358D01*
X181712469Y-94302037D01*
X181712114Y-94303700D01*
X181711689Y-94305343D01*
X181711194Y-94306964D01*
X181710629Y-94308558D01*
X181709993Y-94310123D01*
X181709286Y-94311656D01*
X181708508Y-94313152D01*
X181707658Y-94314610D01*
X181706736Y-94316026D01*
X181282940Y-94933646D01*
X181281133Y-94936565D01*
X181279529Y-94939697D01*
X181278130Y-94943012D01*
X181276937Y-94946483D01*
X181275954Y-94950080D01*
X181275181Y-94953775D01*
X181274620Y-94957540D01*
X181274274Y-94961347D01*
X181274144Y-94965167D01*
X181274232Y-94968971D01*
X181274540Y-94972731D01*
X181275070Y-94976419D01*
X181275823Y-94980006D01*
X181276802Y-94983464D01*
X181278009Y-94986764D01*
X181279445Y-94989877D01*
X181502425Y-95509988D01*
X181503020Y-95511587D01*
X181503690Y-95513181D01*
X181505247Y-95516346D01*
X181507075Y-95519462D01*
X181509151Y-95522512D01*
X181511454Y-95525475D01*
X181513962Y-95528334D01*
X181516652Y-95531070D01*
X181519503Y-95533663D01*
X181522493Y-95536095D01*
X181525600Y-95538347D01*
X181528802Y-95540399D01*
X181532078Y-95542234D01*
X181535404Y-95543833D01*
X181538761Y-95545175D01*
X181542124Y-95546244D01*
X181543802Y-95546669D01*
X181545473Y-95547019D01*
X182272726Y-95682267D01*
X182274383Y-95682623D01*
X182276019Y-95683059D01*
X182277631Y-95683572D01*
X182279218Y-95684161D01*
X182280777Y-95684822D01*
X182282306Y-95685553D01*
X182283804Y-95686352D01*
X182285268Y-95687217D01*
X182286697Y-95688143D01*
X182288087Y-95689131D01*
X182289438Y-95690175D01*
X182290746Y-95691276D01*
X182292011Y-95692429D01*
X182293230Y-95693633D01*
X182294401Y-95694884D01*
X182295521Y-95696181D01*
X182296590Y-95697521D01*
X182297604Y-95698902D01*
X182298563Y-95700321D01*
X182299463Y-95701775D01*
X182300303Y-95703263D01*
X182301080Y-95704781D01*
X182301793Y-95706328D01*
X182302440Y-95707900D01*
X182303018Y-95709496D01*
X182303526Y-95711112D01*
X182303961Y-95712747D01*
X182304322Y-95714398D01*
X182304606Y-95716062D01*
X182304811Y-95717738D01*
X182304936Y-95719422D01*
X182304978Y-95721112D01*
X182304934Y-96469644D01*
X182304892Y-96471334D01*
X182304766Y-96473019D01*
X182304560Y-96474697D01*
X182304276Y-96476363D01*
X182303914Y-96478017D01*
X182303478Y-96479655D01*
X182302969Y-96481275D01*
X182302389Y-96482875D01*
X182301027Y-96486002D01*
X182299407Y-96489016D01*
X182297546Y-96491897D01*
X182295461Y-96494625D01*
X182293167Y-96497179D01*
X182290683Y-96499539D01*
X182288023Y-96501684D01*
X182286633Y-96502670D01*
X182285205Y-96503595D01*
X182283742Y-96504457D01*
X182282246Y-96505252D01*
X182280718Y-96505978D01*
X182279161Y-96506633D01*
X182277577Y-96507214D01*
X182275967Y-96507719D01*
X182274335Y-96508145D01*
X182272681Y-96508489D01*
X181563258Y-96640507D01*
X181561591Y-96640850D01*
X181559921Y-96641269D01*
X181556576Y-96642331D01*
X181553246Y-96643674D01*
X181549952Y-96645277D01*
X181546715Y-96647122D01*
X181543558Y-96649190D01*
X181540503Y-96651460D01*
X181537570Y-96653913D01*
X181534782Y-96656530D01*
X181532161Y-96659292D01*
X181529727Y-96662178D01*
X181527503Y-96665170D01*
X181525511Y-96668248D01*
X181523771Y-96671393D01*
X181522307Y-96674584D01*
X181521685Y-96676192D01*
X181521139Y-96677804D01*
X181299663Y-97231052D01*
X181298292Y-97234198D01*
X181297149Y-97237531D01*
X181296230Y-97241021D01*
X181295535Y-97244639D01*
X181295061Y-97248356D01*
X181294806Y-97252143D01*
X181294768Y-97255972D01*
X181294945Y-97259814D01*
X181295336Y-97263640D01*
X181295937Y-97267421D01*
X181296748Y-97271128D01*
X181297765Y-97274733D01*
X181298988Y-97278206D01*
X181300414Y-97281519D01*
X181302040Y-97284643D01*
X181303866Y-97287548D01*
X181706824Y-97874775D01*
X181707742Y-97876191D01*
X181708588Y-97877649D01*
X181709364Y-97879146D01*
X181710068Y-97880680D01*
X181710702Y-97882246D01*
X181711265Y-97883841D01*
X181712182Y-97887108D01*
X181712821Y-97890453D01*
X181713185Y-97893852D01*
X181713275Y-97897278D01*
X181713095Y-97900706D01*
X181712646Y-97904109D01*
X181711930Y-97907462D01*
X181710951Y-97910739D01*
X181709710Y-97913914D01*
X181708210Y-97916961D01*
X181707364Y-97918429D01*
X181706453Y-97919855D01*
X181705479Y-97921236D01*
X181704442Y-97922569D01*
X181703342Y-97923850D01*
X181702178Y-97925077D01*
X181172821Y-98454346D01*
X181171599Y-98455506D01*
X181170321Y-98456602D01*
X181168992Y-98457636D01*
X181167615Y-98458607D01*
X181166193Y-98459515D01*
X181164730Y-98460358D01*
X181163227Y-98461138D01*
X181161690Y-98461854D01*
X181160120Y-98462505D01*
X181158522Y-98463091D01*
X181155251Y-98464067D01*
X181151904Y-98464781D01*
X181148505Y-98465230D01*
X181145081Y-98465411D01*
X181141658Y-98465322D01*
X181138260Y-98464961D01*
X181136579Y-98464677D01*
X181134914Y-98464325D01*
X181133269Y-98463904D01*
X181131646Y-98463413D01*
X181130049Y-98462852D01*
X181128481Y-98462221D01*
X181126945Y-98461519D01*
X181125445Y-98460747D01*
X181123983Y-98459904D01*
X181122563Y-98458990D01*
X180545734Y-98063067D01*
X180542834Y-98061269D01*
X180539727Y-98059692D01*
X180536441Y-98058336D01*
X180533005Y-98057201D01*
X180529448Y-98056290D01*
X180525798Y-98055602D01*
X180522083Y-98055138D01*
X180518331Y-98054899D01*
X180514572Y-98054885D01*
X180510834Y-98055097D01*
X180507145Y-98055537D01*
X180503533Y-98056204D01*
X180500028Y-98057099D01*
X180496657Y-98058223D01*
X180493448Y-98059576D01*
X180490432Y-98061160D01*
X180236040Y-98196983D01*
X180234522Y-98197711D01*
X180232992Y-98198350D01*
X180231451Y-98198903D01*
X180229903Y-98199370D01*
X180228349Y-98199751D01*
X180226793Y-98200049D01*
X180225237Y-98200264D01*
X180223684Y-98200396D01*
X180222136Y-98200448D01*
X180220597Y-98200420D01*
X180219068Y-98200312D01*
X180217554Y-98200127D01*
X180216055Y-98199865D01*
X180214576Y-98199526D01*
X180213118Y-98199113D01*
X180211684Y-98198626D01*
X180210278Y-98198066D01*
X180208901Y-98197434D01*
X180207556Y-98196731D01*
X180206246Y-98195958D01*
X180204974Y-98195115D01*
X180203742Y-98194205D01*
X180202554Y-98193228D01*
X180201411Y-98192185D01*
X180200316Y-98191077D01*
X180199272Y-98189906D01*
X180198282Y-98188671D01*
X180197349Y-98187374D01*
X180196474Y-98186016D01*
X180195661Y-98184598D01*
X180194913Y-98183121D01*
X180194231Y-98181587D01*
X179669696Y-96914183D01*
X179669085Y-96912607D01*
X179668555Y-96911006D01*
X179668104Y-96909385D01*
X179667732Y-96907745D01*
X179667437Y-96906091D01*
X179667218Y-96904424D01*
X179667006Y-96901068D01*
X179667088Y-96897701D01*
X179667456Y-96894346D01*
X179668101Y-96891028D01*
X179669016Y-96887771D01*
X179670193Y-96884599D01*
X179671624Y-96881536D01*
X179673300Y-96878606D01*
X179675215Y-96875833D01*
X179677359Y-96873243D01*
X179678515Y-96872023D01*
X179679726Y-96870857D01*
X179680990Y-96869749D01*
X179682306Y-96868702D01*
X179683674Y-96867718D01*
X179685093Y-96866800D01*
X179748757Y-96827823D01*
X179753352Y-96824904D01*
X179758252Y-96821573D01*
X179763366Y-96817902D01*
X179768606Y-96813964D01*
X179773880Y-96809830D01*
X179779100Y-96805575D01*
X179784176Y-96801269D01*
X179789018Y-96796986D01*
X179831155Y-96768139D01*
X179871371Y-96736818D01*
X179909555Y-96703132D01*
X179945598Y-96667191D01*
X179979389Y-96629103D01*
X180010819Y-96588978D01*
X180039778Y-96546925D01*
X180066155Y-96503052D01*
X180089841Y-96457470D01*
X180100641Y-96434072D01*
X180110726Y-96410287D01*
X180120084Y-96386130D01*
X180128699Y-96361613D01*
X180136560Y-96336750D01*
X180143652Y-96311556D01*
X180149960Y-96286043D01*
X180155472Y-96260225D01*
X180160174Y-96234117D01*
X180164052Y-96207731D01*
X180167092Y-96181081D01*
X180169280Y-96154181D01*
X180170604Y-96127045D01*
X180171048Y-96099686D01*
X180169970Y-96057086D01*
X180166773Y-96015045D01*
X180161509Y-95973616D01*
X180154228Y-95932850D01*
X180144984Y-95892799D01*
X180133828Y-95853516D01*
X180120812Y-95815052D01*
X180105989Y-95777459D01*
X180089410Y-95740790D01*
X180071128Y-95705096D01*
X180051194Y-95670430D01*
X180029661Y-95636843D01*
X180006580Y-95604388D01*
X179982004Y-95573115D01*
X179955984Y-95543079D01*
X179928574Y-95514329D01*
X179899823Y-95486920D01*
X179869786Y-95460901D01*
X179838513Y-95436326D01*
X179806057Y-95413247D01*
X179772470Y-95391715D01*
X179737803Y-95371783D01*
X179702110Y-95353502D01*
X179665441Y-95336924D01*
X179627850Y-95322102D01*
X179589387Y-95309088D01*
X179550105Y-95297933D01*
X179510057Y-95288690D01*
X179469293Y-95281410D01*
X179427867Y-95276146D01*
X179385829Y-95272949D01*
X179343233Y-95271872D01*
X179300637Y-95272949D01*
X179258600Y-95276146D01*
X179217174Y-95281410D01*
X179176411Y-95288690D01*
X179136364Y-95297933D01*
X179097083Y-95309088D01*
X179058622Y-95322102D01*
X179021032Y-95336924D01*
X178984365Y-95353502D01*
X178948673Y-95371783D01*
X178914009Y-95391715D01*
X178880423Y-95413247D01*
X178847969Y-95436327D01*
X178816699Y-95460902D01*
X178786663Y-95486920D01*
X178757915Y-95514330D01*
X178730506Y-95543079D01*
X178704489Y-95573116D01*
X178679914Y-95604388D01*
X178656836Y-95636843D01*
X178635304Y-95670430D01*
X178615372Y-95705097D01*
X178597092Y-95740791D01*
X178580514Y-95777460D01*
X178565693Y-95815052D01*
X178552678Y-95853516D01*
X178541524Y-95892799D01*
X178532280Y-95932850D01*
X178525001Y-95973616D01*
X178519736Y-96015045D01*
X178516540Y-96057086D01*
X178515463Y-96099686D01*
X178517229Y-96154181D01*
X178522457Y-96207731D01*
X178531034Y-96260225D01*
X178542853Y-96311556D01*
X178557802Y-96361613D01*
X178575773Y-96410287D01*
X178596655Y-96457470D01*
X178620339Y-96503052D01*
X178646714Y-96546925D01*
X178675672Y-96588978D01*
X178707102Y-96629103D01*
X178740894Y-96667191D01*
X178776939Y-96703132D01*
X178815128Y-96736818D01*
X178855349Y-96768139D01*
X178897494Y-96796986D01*
X178902308Y-96801269D01*
X178907367Y-96805574D01*
X178912577Y-96809830D01*
X178917845Y-96813964D01*
X178923081Y-96817902D01*
X178928191Y-96821573D01*
X178933083Y-96824904D01*
X178937666Y-96827823D01*
X179001330Y-96866800D01*
X179002741Y-96867717D01*
X179004102Y-96868702D01*
X179005412Y-96869749D01*
X179006670Y-96870857D01*
X179007876Y-96872022D01*
X179009027Y-96873242D01*
X179010124Y-96874513D01*
X179011165Y-96875833D01*
X179012149Y-96877198D01*
X179013075Y-96878605D01*
X179013942Y-96880052D01*
X179014749Y-96881535D01*
X179015495Y-96883051D01*
X179016179Y-96884598D01*
X179016800Y-96886172D01*
X179017357Y-96887770D01*
X179017849Y-96889389D01*
X179018275Y-96891027D01*
X179018634Y-96892680D01*
X179018924Y-96894345D01*
X179019146Y-96896020D01*
X179019297Y-96897700D01*
X179019377Y-96899384D01*
X179019385Y-96901068D01*
X179019320Y-96902749D01*
X179019180Y-96904424D01*
X179018965Y-96906090D01*
X179018674Y-96907745D01*
X179018306Y-96909384D01*
X179017859Y-96911006D01*
X179017333Y-96912607D01*
X179016726Y-96914183D01*
X178492235Y-98181632D01*
X178491554Y-98183167D01*
X178490806Y-98184644D01*
X178489994Y-98186061D01*
X178489120Y-98187418D01*
X178488187Y-98188714D01*
X178487198Y-98189948D01*
X178486156Y-98191119D01*
X178485062Y-98192226D01*
X178483920Y-98193267D01*
X178482733Y-98194243D01*
X178481503Y-98195151D01*
X178480232Y-98195992D01*
X178478924Y-98196763D01*
X178477580Y-98197465D01*
X178476204Y-98198096D01*
X178474799Y-98198655D01*
X178473366Y-98199141D01*
X178471909Y-98199553D01*
X178470430Y-98199890D01*
X178468932Y-98200152D01*
X178467418Y-98200337D01*
X178465889Y-98200444D01*
X178464350Y-98200473D01*
X178462802Y-98200421D01*
X178461248Y-98200290D01*
X178459690Y-98200076D01*
X178458132Y-98199781D01*
X178456577Y-98199401D01*
X178455026Y-98198937D01*
X178453482Y-98198388D01*
X178451948Y-98197752D01*
X178450427Y-98197028D01*
X178196035Y-98061205D01*
X178193011Y-98059619D01*
X178189797Y-98058263D01*
X178186422Y-98057135D01*
X178182914Y-98056237D01*
X178179302Y-98055567D01*
X178175613Y-98055125D01*
X178171875Y-98054910D01*
X178168118Y-98054922D01*
X178164369Y-98055160D01*
X178160657Y-98055623D01*
X178157009Y-98056312D01*
X178153455Y-98057225D01*
X178150022Y-98058362D01*
X178146738Y-98059723D01*
X178143632Y-98061307D01*
X178140733Y-98063112D01*
X177563859Y-98459035D01*
X177562443Y-98459949D01*
X177560985Y-98460792D01*
X177559487Y-98461564D01*
X177557954Y-98462265D01*
X177556388Y-98462896D01*
X177554793Y-98463456D01*
X177551527Y-98464369D01*
X177548183Y-98465005D01*
X177544786Y-98465366D01*
X177541363Y-98465455D01*
X177537939Y-98465274D01*
X177534540Y-98464826D01*
X177531193Y-98464113D01*
X177527924Y-98463136D01*
X177524757Y-98461899D01*
X177521720Y-98460404D01*
X177520258Y-98459560D01*
X177518839Y-98458653D01*
X177517464Y-98457682D01*
X177516138Y-98456648D01*
X177514864Y-98455551D01*
X177513645Y-98454392D01*
X176984287Y-97925123D01*
X176983120Y-97923896D01*
X176982016Y-97922614D01*
X176980975Y-97921281D01*
X176979997Y-97919900D01*
X176979084Y-97918474D01*
X176978235Y-97917006D01*
X176977450Y-97915500D01*
X176976730Y-97913959D01*
X176976075Y-97912386D01*
X176975485Y-97910784D01*
X176974504Y-97907507D01*
X176973787Y-97904154D01*
X176973337Y-97900751D01*
X176973157Y-97897323D01*
X176973249Y-97893897D01*
X176973615Y-97890498D01*
X176973902Y-97888817D01*
X176974258Y-97887153D01*
X176974684Y-97885508D01*
X176975180Y-97883886D01*
X176975747Y-97882291D01*
X176976383Y-97880725D01*
X176977091Y-97879192D01*
X176977870Y-97877694D01*
X176978721Y-97876236D01*
X176979643Y-97874820D01*
X177382644Y-97287594D01*
X177384455Y-97284688D01*
X177386069Y-97281564D01*
X177387486Y-97278251D01*
X177388701Y-97274778D01*
X177389713Y-97271173D01*
X177390521Y-97267466D01*
X177391120Y-97263685D01*
X177391510Y-97259860D01*
X177391688Y-97256018D01*
X177391651Y-97252189D01*
X177391398Y-97248401D01*
X177390925Y-97244684D01*
X177390232Y-97241066D01*
X177389315Y-97237576D01*
X177388173Y-97234244D01*
X177386802Y-97231097D01*
X177165327Y-96677849D01*
X177164779Y-96676237D01*
X177164154Y-96674630D01*
X177162688Y-96671438D01*
X177160949Y-96668293D01*
X177158960Y-96665215D01*
X177156742Y-96662224D01*
X177154315Y-96659337D01*
X177151701Y-96656576D01*
X177148921Y-96653959D01*
X177145996Y-96651506D01*
X177142948Y-96649236D01*
X177139797Y-96647168D01*
X177136565Y-96645323D01*
X177133274Y-96643720D01*
X177129944Y-96642377D01*
X177128271Y-96641810D01*
X177126596Y-96641315D01*
X177124923Y-96640896D01*
X177123252Y-96640553D01*
X176413830Y-96508535D01*
X176412180Y-96508191D01*
X176410551Y-96507765D01*
X176408945Y-96507260D01*
X176407363Y-96506679D01*
X176405808Y-96506024D01*
X176404282Y-96505298D01*
X176402787Y-96504503D01*
X176401325Y-96503642D01*
X176399898Y-96502717D01*
X176398508Y-96501730D01*
X176397157Y-96500686D01*
X176395848Y-96499585D01*
X176394583Y-96498430D01*
X176393363Y-96497225D01*
X176392190Y-96495971D01*
X176391068Y-96494671D01*
X176389997Y-96493327D01*
X176388980Y-96491943D01*
X176388019Y-96490520D01*
X176387117Y-96489062D01*
X176386274Y-96487570D01*
X176385494Y-96486048D01*
X176384778Y-96484497D01*
X176384129Y-96482921D01*
X176383548Y-96481321D01*
X176383038Y-96479701D01*
X176382601Y-96478063D01*
X176382238Y-96476409D01*
X176381953Y-96474743D01*
X176381746Y-96473066D01*
X176381620Y-96471380D01*
X176381578Y-96469690D01*
X176381489Y-95721157D01*
X176381528Y-95719463D01*
X176381649Y-95717775D01*
X176381852Y-95716096D01*
X176382133Y-95714429D01*
X176382492Y-95712775D01*
X176382925Y-95711137D01*
X176383431Y-95709518D01*
X176384008Y-95707920D01*
X176384654Y-95706345D01*
X176385366Y-95704796D01*
X176386981Y-95701787D01*
X176388838Y-95698911D01*
X176390919Y-95696188D01*
X176393208Y-95693637D01*
X176395689Y-95691279D01*
X176398344Y-95689133D01*
X176401156Y-95687218D01*
X176402617Y-95686354D01*
X176404111Y-95685555D01*
X176405635Y-95684823D01*
X176407189Y-95684162D01*
X176408770Y-95683574D01*
X176410376Y-95683060D01*
X176412005Y-95682624D01*
X176413654Y-95682268D01*
X176413653Y-95682268D01*
X177140951Y-95547019D01*
X177144285Y-95546244D01*
X177147636Y-95545176D01*
X177150983Y-95543833D01*
X177154303Y-95542235D01*
X177157574Y-95540400D01*
X177160773Y-95538348D01*
X177163880Y-95536096D01*
X177166871Y-95533664D01*
X177169725Y-95531071D01*
X177172419Y-95528336D01*
X177174931Y-95525477D01*
X177177240Y-95522513D01*
X177179324Y-95519463D01*
X177181159Y-95516347D01*
X177182724Y-95513182D01*
X177183997Y-95509989D01*
X177406934Y-94989878D01*
X177408377Y-94986764D01*
X177409590Y-94983465D01*
X177410575Y-94980007D01*
X177411333Y-94976420D01*
X177411866Y-94972732D01*
X177412175Y-94968972D01*
X177412264Y-94965167D01*
X177412133Y-94961348D01*
X177411784Y-94957541D01*
X177411218Y-94953776D01*
X177410439Y-94950080D01*
X177409447Y-94946483D01*
X177408245Y-94943013D01*
X177406833Y-94939698D01*
X177405215Y-94936566D01*
X177403391Y-94933647D01*
X176979641Y-94316027D01*
X176978726Y-94314611D01*
X176977883Y-94313153D01*
X176977110Y-94311656D01*
X176976407Y-94310124D01*
X176975775Y-94308559D01*
X176975212Y-94306964D01*
X176974295Y-94303700D01*
X176973654Y-94300358D01*
X176973288Y-94296963D01*
X176973194Y-94293541D01*
X176973370Y-94290117D01*
X176973815Y-94286718D01*
X176974527Y-94283369D01*
X176975503Y-94280096D01*
X176976742Y-94276924D01*
X176978241Y-94273880D01*
X176979088Y-94272414D01*
X176980000Y-94270989D01*
X176980975Y-94269608D01*
X176982015Y-94268276D01*
X176983118Y-94266995D01*
X176984285Y-94265768D01*
X177513553Y-93736500D01*
X177514780Y-93735332D01*
X177516061Y-93734228D01*
X177517393Y-93733187D01*
X177518772Y-93732210D01*
X177520196Y-93731296D01*
X177521661Y-93730447D01*
X177523165Y-93729662D01*
X177524703Y-93728942D01*
X177526273Y-93728287D01*
X177527871Y-93727698D01*
X177531141Y-93726716D01*
X177534485Y-93725999D01*
X177537880Y-93725550D01*
X177541300Y-93725370D01*
X177544718Y-93725461D01*
X177548109Y-93725828D01*
X177549786Y-93726114D01*
X177551448Y-93726470D01*
X177553089Y-93726896D01*
X177554708Y-93727392D01*
X177556302Y-93727958D01*
X177557866Y-93728595D01*
X177559397Y-93729303D01*
X177560894Y-93730081D01*
X177562351Y-93730932D01*
X177563767Y-93731854D01*
X178192227Y-94163127D01*
X178195134Y-94164944D01*
X178198260Y-94166563D01*
X178201577Y-94167980D01*
X178205055Y-94169195D01*
X178208665Y-94170204D01*
X178212378Y-94171006D01*
X178216164Y-94171599D01*
X178219995Y-94171981D01*
X178223840Y-94172150D01*
X178227671Y-94172104D01*
X178231459Y-94171841D01*
X178235175Y-94171358D01*
X178238788Y-94170655D01*
X178242270Y-94169728D01*
X178245592Y-94168577D01*
X178248725Y-94167198D01*
X178752908Y-93960809D01*
X178754512Y-93960239D01*
X178756110Y-93959592D01*
X178757701Y-93958872D01*
X178759283Y-93958081D01*
X178762408Y-93956298D01*
X178765465Y-93954264D01*
X178768437Y-93952001D01*
X178771304Y-93949531D01*
X178774048Y-93946876D01*
X178776650Y-93944057D01*
X178779090Y-93941097D01*
X178781350Y-93938017D01*
X178783411Y-93934840D01*
X178785254Y-93931586D01*
X178786860Y-93928278D01*
X178788211Y-93924938D01*
X178789288Y-93921587D01*
X178789718Y-93919915D01*
X178790071Y-93918248D01*
X178930098Y-93165998D01*
X178930446Y-93164345D01*
X178930875Y-93162712D01*
X178931382Y-93161103D01*
X178931965Y-93159518D01*
X178932621Y-93157961D01*
X178933348Y-93156434D01*
X178934143Y-93154937D01*
X178935004Y-93153474D01*
X178935928Y-93152046D01*
X178936913Y-93150656D01*
X178937956Y-93149305D01*
X178939055Y-93147997D01*
X178940207Y-93146731D01*
X178941410Y-93145512D01*
X178942661Y-93144340D01*
X178943958Y-93143219D01*
X178945298Y-93142149D01*
X178946679Y-93141133D01*
X178948098Y-93140174D01*
X178949553Y-93139272D01*
X178951042Y-93138431D01*
X178952561Y-93137652D01*
X178954109Y-93136938D01*
X178955682Y-93136290D01*
X178957279Y-93135710D01*
X178958896Y-93135201D01*
X178960532Y-93134765D01*
X178962184Y-93134404D01*
X178963849Y-93134119D01*
X178965525Y-93133913D01*
X178967209Y-93133788D01*
X178968899Y-93133745D01*
X179717477Y-93133745D01*
X179719163Y-93133788D01*
G37*
D12*
%TO.C,G\u002A\u002A\u002A*%
G36*
X178586303Y-86905541D02*
G01*
X178604379Y-87452955D01*
X176597537Y-87452955D01*
X174590695Y-87452955D01*
X174608772Y-86905541D01*
X174626848Y-86358128D01*
X176597537Y-86358128D01*
X178568227Y-86358128D01*
X178586303Y-86905541D01*
G37*
G36*
X178747394Y-84197624D02*
G01*
X178569718Y-84641760D01*
X178299682Y-85039942D01*
X177947291Y-85376486D01*
X177522551Y-85635706D01*
X177035468Y-85801918D01*
X176553375Y-85849673D01*
X176065714Y-85785221D01*
X175601217Y-85616717D01*
X175180355Y-85354174D01*
X174823597Y-85007603D01*
X174551413Y-84587015D01*
X174508941Y-84498017D01*
X174439493Y-84323605D01*
X174399428Y-84149825D01*
X174381046Y-83934812D01*
X174376648Y-83636699D01*
X174379150Y-83530121D01*
X175464410Y-83530121D01*
X175484463Y-83861917D01*
X175604831Y-84173419D01*
X175820967Y-84441883D01*
X176128326Y-84644563D01*
X176250634Y-84693074D01*
X176590749Y-84749908D01*
X176912988Y-84701213D01*
X177200094Y-84561343D01*
X177434810Y-84344654D01*
X177599879Y-84065497D01*
X177678041Y-83738229D01*
X177652040Y-83377202D01*
X177637818Y-83320020D01*
X177486882Y-82983960D01*
X177247809Y-82729006D01*
X176935696Y-82567202D01*
X176565642Y-82510591D01*
X176323407Y-82532841D01*
X176036655Y-82644558D01*
X175772577Y-82864735D01*
X175743435Y-82896631D01*
X175549219Y-83200777D01*
X175464410Y-83530121D01*
X174379150Y-83530121D01*
X174382491Y-83387786D01*
X174427708Y-83018581D01*
X174530453Y-82708836D01*
X174705886Y-82419535D01*
X174969168Y-82111661D01*
X175215413Y-81880207D01*
X175617846Y-81619005D01*
X176061940Y-81469264D01*
X176566257Y-81422979D01*
X176971763Y-81457661D01*
X177470443Y-81600644D01*
X177909965Y-81845901D01*
X178278563Y-82184393D01*
X178564469Y-82607081D01*
X178755915Y-83104926D01*
X178785643Y-83234231D01*
X178822705Y-83723219D01*
X178820322Y-83738229D01*
X178747394Y-84197624D01*
G37*
G36*
X183618237Y-86188073D02*
G01*
X183767004Y-86584703D01*
X183890624Y-86918430D01*
X183983944Y-87175867D01*
X184041812Y-87343625D01*
X184059077Y-87408314D01*
X184037711Y-87419088D01*
X183915957Y-87435091D01*
X183713315Y-87442438D01*
X183459164Y-87439595D01*
X182886165Y-87421674D01*
X182767695Y-87091680D01*
X182649225Y-86761686D01*
X181674399Y-86778872D01*
X180699573Y-86796059D01*
X180572757Y-87124507D01*
X180445940Y-87452955D01*
X179860031Y-87452955D01*
X179274121Y-87452955D01*
X179311901Y-87302427D01*
X179312187Y-87301312D01*
X179344905Y-87203787D01*
X179416895Y-87007057D01*
X179522902Y-86724623D01*
X179657669Y-86369986D01*
X179815941Y-85956649D01*
X179920290Y-85685591D01*
X181119658Y-85685591D01*
X181131018Y-85719388D01*
X181217375Y-85745498D01*
X181397285Y-85759579D01*
X181686416Y-85763793D01*
X182281288Y-85763793D01*
X181998961Y-84919211D01*
X181959107Y-84801213D01*
X181858771Y-84515195D01*
X181772602Y-84284878D01*
X181708705Y-84131380D01*
X181675190Y-84075820D01*
X181672215Y-84077307D01*
X181633951Y-84150353D01*
X181568734Y-84317147D01*
X181484893Y-84555244D01*
X181390758Y-84842200D01*
X181379664Y-84877125D01*
X181286631Y-85169155D01*
X181206835Y-85418199D01*
X181148452Y-85598822D01*
X181119658Y-85685591D01*
X179920290Y-85685591D01*
X179992464Y-85498113D01*
X180181980Y-85007880D01*
X180379236Y-84499451D01*
X180578974Y-83986329D01*
X180775941Y-83482015D01*
X180964880Y-83000011D01*
X181140536Y-82553818D01*
X181297654Y-82156938D01*
X181430977Y-81822874D01*
X181535252Y-81565126D01*
X181605221Y-81397196D01*
X181635629Y-81332586D01*
X181670734Y-81325655D01*
X181742001Y-81387054D01*
X181746932Y-81395654D01*
X181795598Y-81502788D01*
X181880942Y-81707685D01*
X181997813Y-81996955D01*
X182141058Y-82357211D01*
X182305525Y-82775063D01*
X182486063Y-83237122D01*
X182677518Y-83730001D01*
X182874739Y-84240310D01*
X183072574Y-84754660D01*
X183265870Y-85259663D01*
X183449475Y-85741930D01*
X183457745Y-85763793D01*
X183618237Y-86188073D01*
G37*
%TD*%
M02*
