%TF.GenerationSoftware,KiCad,Pcbnew,9.0.6*%
%TF.CreationDate,2026-02-16T15:35:22+05:30*%
%TF.ProjectId,peripheral_Starter,70657269-7068-4657-9261-6c5f53746172,v1*%
%TF.SameCoordinates,Original*%
%TF.FileFunction,Paste,Top*%
%TF.FilePolarity,Positive*%
%FSLAX46Y46*%
G04 Gerber Fmt 4.6, Leading zero omitted, Abs format (unit mm)*
G04 Created by KiCad (PCBNEW 9.0.6) date 2026-02-16 15:35:22*
%MOMM*%
%LPD*%
G01*
G04 APERTURE LIST*
G04 Aperture macros list*
%AMRoundRect*
0 Rectangle with rounded corners*
0 $1 Rounding radius*
0 $2 $3 $4 $5 $6 $7 $8 $9 X,Y pos of 4 corners*
0 Add a 4 corners polygon primitive as box body*
4,1,4,$2,$3,$4,$5,$6,$7,$8,$9,$2,$3,0*
0 Add four circle primitives for the rounded corners*
1,1,$1+$1,$2,$3*
1,1,$1+$1,$4,$5*
1,1,$1+$1,$6,$7*
1,1,$1+$1,$8,$9*
0 Add four rect primitives between the rounded corners*
20,1,$1+$1,$2,$3,$4,$5,0*
20,1,$1+$1,$4,$5,$6,$7,0*
20,1,$1+$1,$6,$7,$8,$9,0*
20,1,$1+$1,$8,$9,$2,$3,0*%
G04 Aperture macros list end*
%ADD10RoundRect,0.250000X-0.625000X0.400000X-0.625000X-0.400000X0.625000X-0.400000X0.625000X0.400000X0*%
%ADD11RoundRect,0.250000X-0.400000X-0.625000X0.400000X-0.625000X0.400000X0.625000X-0.400000X0.625000X0*%
%ADD12RoundRect,0.250001X-0.624999X0.462499X-0.624999X-0.462499X0.624999X-0.462499X0.624999X0.462499X0*%
%ADD13RoundRect,0.375000X0.375000X-0.625000X0.375000X0.625000X-0.375000X0.625000X-0.375000X-0.625000X0*%
%ADD14RoundRect,0.500000X1.400000X-0.500000X1.400000X0.500000X-1.400000X0.500000X-1.400000X-0.500000X0*%
%ADD15RoundRect,0.090000X-0.660000X-0.360000X0.660000X-0.360000X0.660000X0.360000X-0.660000X0.360000X0*%
%ADD16RoundRect,0.250000X0.400000X0.625000X-0.400000X0.625000X-0.400000X-0.625000X0.400000X-0.625000X0*%
%ADD17RoundRect,0.250000X0.625000X-0.400000X0.625000X0.400000X-0.625000X0.400000X-0.625000X-0.400000X0*%
%ADD18RoundRect,0.250000X1.137500X0.550000X-1.137500X0.550000X-1.137500X-0.550000X1.137500X-0.550000X0*%
%ADD19RoundRect,0.250000X-0.650000X0.412500X-0.650000X-0.412500X0.650000X-0.412500X0.650000X0.412500X0*%
%ADD20RoundRect,0.250000X-0.412500X-0.650000X0.412500X-0.650000X0.412500X0.650000X-0.412500X0.650000X0*%
%ADD21RoundRect,0.250000X0.412500X0.650000X-0.412500X0.650000X-0.412500X-0.650000X0.412500X-0.650000X0*%
%ADD22RoundRect,0.250000X1.075000X0.550000X-1.075000X0.550000X-1.075000X-0.550000X1.075000X-0.550000X0*%
%ADD23RoundRect,0.150000X0.150000X-0.587500X0.150000X0.587500X-0.150000X0.587500X-0.150000X-0.587500X0*%
G04 APERTURE END LIST*
D10*
%TO.C,R13*%
X184595000Y-56340000D03*
X184595000Y-59440000D03*
%TD*%
D11*
%TO.C,R15*%
X199450000Y-89725000D03*
X202550000Y-89725000D03*
%TD*%
D12*
%TO.C,D3*%
X167850000Y-107550000D03*
X167850000Y-110525000D03*
%TD*%
D13*
%TO.C,U2*%
X148550000Y-56100000D03*
X150850000Y-56100000D03*
D14*
X150850000Y-49800000D03*
D13*
X153150000Y-56100000D03*
%TD*%
D15*
%TO.C,D5*%
X176430000Y-56595000D03*
X176430000Y-59895000D03*
X181330000Y-59895000D03*
X181330000Y-56595000D03*
%TD*%
D12*
%TO.C,D4*%
X171200000Y-107550000D03*
X171200000Y-110525000D03*
%TD*%
D16*
%TO.C,R5*%
X190250000Y-113150000D03*
X187150000Y-113150000D03*
%TD*%
%TO.C,R6*%
X190200000Y-104250000D03*
X187100000Y-104250000D03*
%TD*%
D11*
%TO.C,R9*%
X200710000Y-54375000D03*
X203810000Y-54375000D03*
%TD*%
D16*
%TO.C,R16*%
X208200000Y-89675000D03*
X205100000Y-89675000D03*
%TD*%
D10*
%TO.C,R12*%
X188300000Y-56450000D03*
X188300000Y-59550000D03*
%TD*%
D17*
%TO.C,R2*%
X164524000Y-118122000D03*
X164524000Y-115022000D03*
%TD*%
D11*
%TO.C,R7*%
X187150000Y-108700000D03*
X190250000Y-108700000D03*
%TD*%
D18*
%TO.C,C5*%
X148162500Y-67200000D03*
X144037500Y-67200000D03*
%TD*%
D11*
%TO.C,R8*%
X187150000Y-116950000D03*
X190250000Y-116950000D03*
%TD*%
D12*
%TO.C,D1*%
X161150000Y-107525000D03*
X161150000Y-110500000D03*
%TD*%
D11*
%TO.C,R14*%
X182900000Y-64300000D03*
X186000000Y-64300000D03*
%TD*%
D19*
%TO.C,C7*%
X167325000Y-54375000D03*
X167325000Y-57500000D03*
%TD*%
D20*
%TO.C,C9*%
X211900000Y-108750000D03*
X215025000Y-108750000D03*
%TD*%
D17*
%TO.C,R1*%
X161214000Y-118122000D03*
X161214000Y-115022000D03*
%TD*%
D21*
%TO.C,C8*%
X208875000Y-108750000D03*
X205750000Y-108750000D03*
%TD*%
D17*
%TO.C,R4*%
X171144000Y-118122000D03*
X171144000Y-115022000D03*
%TD*%
D22*
%TO.C,C3*%
X157150000Y-67100000D03*
X153800000Y-67100000D03*
%TD*%
D23*
%TO.C,Q1*%
X177950000Y-64700000D03*
X179850000Y-64700000D03*
X178900000Y-62825000D03*
%TD*%
D19*
%TO.C,C10*%
X172530000Y-56612500D03*
X172530000Y-59737500D03*
%TD*%
D16*
%TO.C,R10*%
X209450000Y-54375000D03*
X206350000Y-54375000D03*
%TD*%
D12*
%TO.C,D2*%
X164550000Y-107575000D03*
X164550000Y-110550000D03*
%TD*%
D17*
%TO.C,R3*%
X167834000Y-118122000D03*
X167834000Y-115022000D03*
%TD*%
M02*
