%TF.GenerationSoftware,KiCad,Pcbnew,9.0.6*%
%TF.CreationDate,2026-02-16T15:35:22+05:30*%
%TF.ProjectId,peripheral_Starter,70657269-7068-4657-9261-6c5f53746172,v1*%
%TF.SameCoordinates,Original*%
%TF.FileFunction,Soldermask,Bot*%
%TF.FilePolarity,Negative*%
%FSLAX46Y46*%
G04 Gerber Fmt 4.6, Leading zero omitted, Abs format (unit mm)*
G04 Created by KiCad (PCBNEW 9.0.6) date 2026-02-16 15:35:22*
%MOMM*%
%LPD*%
G01*
G04 APERTURE LIST*
G04 Aperture macros list*
%AMRoundRect*
0 Rectangle with rounded corners*
0 $1 Rounding radius*
0 $2 $3 $4 $5 $6 $7 $8 $9 X,Y pos of 4 corners*
0 Add a 4 corners polygon primitive as box body*
4,1,4,$2,$3,$4,$5,$6,$7,$8,$9,$2,$3,0*
0 Add four circle primitives for the rounded corners*
1,1,$1+$1,$2,$3*
1,1,$1+$1,$4,$5*
1,1,$1+$1,$6,$7*
1,1,$1+$1,$8,$9*
0 Add four rect primitives between the rounded corners*
20,1,$1+$1,$2,$3,$4,$5,0*
20,1,$1+$1,$4,$5,$6,$7,0*
20,1,$1+$1,$6,$7,$8,$9,0*
20,1,$1+$1,$8,$9,$2,$3,0*%
G04 Aperture macros list end*
%ADD10C,1.600000*%
%ADD11C,1.500000*%
%ADD12C,2.340000*%
%ADD13C,2.500000*%
%ADD14R,1.700000X1.700000*%
%ADD15C,1.700000*%
%ADD16O,2.404000X4.604000*%
%ADD17O,2.204000X4.204000*%
%ADD18O,4.204000X2.204000*%
%ADD19C,2.000000*%
%ADD20C,1.704000*%
%ADD21O,2.101600X2.101600*%
%ADD22O,2.203200X2.203200*%
%ADD23RoundRect,0.101600X-1.000000X-1.000000X1.000000X-1.000000X1.000000X1.000000X-1.000000X1.000000X0*%
%ADD24RoundRect,0.050800X-1.000000X-1.000000X1.000000X-1.000000X1.000000X1.000000X-1.000000X1.000000X0*%
%ADD25C,2.010000*%
%ADD26C,1.879600*%
G04 APERTURE END LIST*
D10*
%TO.C,C1*%
X145950000Y-99450000D03*
X143950000Y-99450000D03*
%TD*%
D11*
%TO.C,R11*%
X186750000Y-72950000D03*
X186750000Y-69550000D03*
%TD*%
D12*
%TO.C,RV1*%
X207000000Y-117450000D03*
X209500000Y-112450000D03*
X212000000Y-117450000D03*
%TD*%
D13*
%TO.C,H3*%
X216500000Y-49500000D03*
%TD*%
D14*
%TO.C,J11*%
X181420000Y-51260000D03*
D15*
X183960000Y-51260000D03*
X186500000Y-51260000D03*
%TD*%
D16*
%TO.C,J1*%
X154525000Y-113250000D03*
D17*
X148225000Y-113250000D03*
D18*
X151625000Y-118050000D03*
%TD*%
D10*
%TO.C,C2*%
X150750000Y-99450000D03*
X153250000Y-99450000D03*
%TD*%
D14*
%TO.C,JP1*%
X163350000Y-55500000D03*
D15*
X160810000Y-55500000D03*
X158270000Y-55500000D03*
%TD*%
D10*
%TO.C,C6*%
X145060000Y-60800000D03*
X147560000Y-60800000D03*
%TD*%
D14*
%TO.C,J8*%
X192790000Y-121400000D03*
D15*
X190250000Y-121400000D03*
X187710000Y-121400000D03*
X185170000Y-121400000D03*
%TD*%
D14*
%TO.C,J14*%
X201930000Y-59550000D03*
D15*
X204470000Y-59550000D03*
X207010000Y-59550000D03*
X209550000Y-59550000D03*
%TD*%
D14*
%TO.C,J13*%
X197625000Y-93502000D03*
D15*
X200165000Y-93502000D03*
X202705000Y-93502000D03*
X205245000Y-93502000D03*
X207785000Y-93502000D03*
X210325000Y-93502000D03*
%TD*%
D19*
%TO.C,SW1*%
X182700000Y-117250000D03*
X176200000Y-117250000D03*
X182700000Y-112750000D03*
X176200000Y-112750000D03*
%TD*%
%TO.C,SW4*%
X194450000Y-112700000D03*
X200950000Y-112700000D03*
X194450000Y-117200000D03*
X200950000Y-117200000D03*
%TD*%
%TO.C,SW3*%
X194450000Y-103600000D03*
X200950000Y-103600000D03*
X194450000Y-108100000D03*
X200950000Y-108100000D03*
%TD*%
D14*
%TO.C,J2*%
X162960000Y-78230000D03*
D15*
X162960000Y-80770000D03*
X162960000Y-83310000D03*
X162960000Y-85850000D03*
X162960000Y-88390000D03*
X165500000Y-88390000D03*
X165500000Y-85850000D03*
X165500000Y-83310000D03*
X165500000Y-80770000D03*
X165500000Y-78230000D03*
%TD*%
D13*
%TO.C,H1*%
X143500000Y-122450000D03*
%TD*%
D20*
%TO.C,BZ1*%
X180000000Y-72900000D03*
X173500000Y-72900000D03*
%TD*%
D10*
%TO.C,C4*%
X156450000Y-60900000D03*
X153950000Y-60900000D03*
%TD*%
D21*
%TO.C,U1*%
X143896000Y-92021000D03*
D22*
X146436000Y-92021000D03*
D23*
X154564000Y-92021000D03*
D24*
X157104000Y-92021000D03*
D23*
X154564000Y-73479000D03*
D24*
X157104000Y-73479000D03*
D21*
X143896000Y-73479000D03*
D22*
X146436000Y-73479000D03*
%TD*%
D25*
%TO.C,F1*%
X153000000Y-105350000D03*
X147900000Y-104150000D03*
%TD*%
D13*
%TO.C,H4*%
X143500000Y-49500000D03*
%TD*%
D14*
%TO.C,J3*%
X162860000Y-62710000D03*
D15*
X162860000Y-65250000D03*
X162860000Y-67790000D03*
X162860000Y-70330000D03*
X162860000Y-72870000D03*
X165400000Y-72870000D03*
X165400000Y-70330000D03*
X165400000Y-67790000D03*
X165400000Y-65250000D03*
X165400000Y-62710000D03*
%TD*%
D14*
%TO.C,J7*%
X170580000Y-121550000D03*
D15*
X168040000Y-121550000D03*
X165500000Y-121550000D03*
X162960000Y-121550000D03*
%TD*%
D14*
%TO.C,J9*%
X210000000Y-121400000D03*
D15*
X207460000Y-121400000D03*
%TD*%
D26*
%TO.C,SW6*%
X159310000Y-49900000D03*
X161850000Y-49900000D03*
X164390000Y-49900000D03*
%TD*%
D13*
%TO.C,H2*%
X216500000Y-122500000D03*
%TD*%
D14*
%TO.C,J6*%
X171300000Y-49000000D03*
D15*
X171300000Y-51540000D03*
%TD*%
D14*
%TO.C,J10*%
X206350000Y-50565000D03*
D15*
X203810000Y-50565000D03*
%TD*%
D19*
%TO.C,SW2*%
X176200000Y-103550000D03*
X182700000Y-103550000D03*
X176200000Y-108050000D03*
X182700000Y-108050000D03*
%TD*%
D14*
%TO.C,J12*%
X214825000Y-92840000D03*
D15*
X214825000Y-90300000D03*
%TD*%
D12*
%TO.C,RV2*%
X207150000Y-105200000D03*
X209650000Y-100200000D03*
X212150000Y-105200000D03*
%TD*%
M02*
