%TF.GenerationSoftware,KiCad,Pcbnew,9.0.6*%
%TF.CreationDate,2026-02-16T15:35:22+05:30*%
%TF.ProjectId,peripheral_Starter,70657269-7068-4657-9261-6c5f53746172,v1*%
%TF.SameCoordinates,Original*%
%TF.FileFunction,Soldermask,Top*%
%TF.FilePolarity,Negative*%
%FSLAX46Y46*%
G04 Gerber Fmt 4.6, Leading zero omitted, Abs format (unit mm)*
G04 Created by KiCad (PCBNEW 9.0.6) date 2026-02-16 15:35:22*
%MOMM*%
%LPD*%
G01*
G04 APERTURE LIST*
G04 Aperture macros list*
%AMRoundRect*
0 Rectangle with rounded corners*
0 $1 Rounding radius*
0 $2 $3 $4 $5 $6 $7 $8 $9 X,Y pos of 4 corners*
0 Add a 4 corners polygon primitive as box body*
4,1,4,$2,$3,$4,$5,$6,$7,$8,$9,$2,$3,0*
0 Add four circle primitives for the rounded corners*
1,1,$1+$1,$2,$3*
1,1,$1+$1,$4,$5*
1,1,$1+$1,$6,$7*
1,1,$1+$1,$8,$9*
0 Add four rect primitives between the rounded corners*
20,1,$1+$1,$2,$3,$4,$5,0*
20,1,$1+$1,$4,$5,$6,$7,0*
20,1,$1+$1,$6,$7,$8,$9,0*
20,1,$1+$1,$8,$9,$2,$3,0*%
G04 Aperture macros list end*
%ADD10C,1.600000*%
%ADD11C,1.500000*%
%ADD12C,2.340000*%
%ADD13C,2.500000*%
%ADD14R,1.700000X1.700000*%
%ADD15C,1.700000*%
%ADD16O,2.404000X4.604000*%
%ADD17O,2.204000X4.204000*%
%ADD18O,4.204000X2.204000*%
%ADD19RoundRect,0.250000X-0.625000X0.400000X-0.625000X-0.400000X0.625000X-0.400000X0.625000X0.400000X0*%
%ADD20RoundRect,0.250000X-0.400000X-0.625000X0.400000X-0.625000X0.400000X0.625000X-0.400000X0.625000X0*%
%ADD21RoundRect,0.250001X-0.624999X0.462499X-0.624999X-0.462499X0.624999X-0.462499X0.624999X0.462499X0*%
%ADD22RoundRect,0.375000X0.375000X-0.625000X0.375000X0.625000X-0.375000X0.625000X-0.375000X-0.625000X0*%
%ADD23RoundRect,0.500000X1.400000X-0.500000X1.400000X0.500000X-1.400000X0.500000X-1.400000X-0.500000X0*%
%ADD24RoundRect,0.090000X-0.660000X-0.360000X0.660000X-0.360000X0.660000X0.360000X-0.660000X0.360000X0*%
%ADD25RoundRect,0.250000X0.400000X0.625000X-0.400000X0.625000X-0.400000X-0.625000X0.400000X-0.625000X0*%
%ADD26C,2.000000*%
%ADD27RoundRect,0.250000X0.625000X-0.400000X0.625000X0.400000X-0.625000X0.400000X-0.625000X-0.400000X0*%
%ADD28RoundRect,0.250000X1.137500X0.550000X-1.137500X0.550000X-1.137500X-0.550000X1.137500X-0.550000X0*%
%ADD29C,1.704000*%
%ADD30RoundRect,0.250000X-0.650000X0.412500X-0.650000X-0.412500X0.650000X-0.412500X0.650000X0.412500X0*%
%ADD31O,2.101600X2.101600*%
%ADD32O,2.203200X2.203200*%
%ADD33RoundRect,0.101600X-1.000000X-1.000000X1.000000X-1.000000X1.000000X1.000000X-1.000000X1.000000X0*%
%ADD34RoundRect,0.050800X-1.000000X-1.000000X1.000000X-1.000000X1.000000X1.000000X-1.000000X1.000000X0*%
%ADD35C,2.010000*%
%ADD36RoundRect,0.250000X-0.412500X-0.650000X0.412500X-0.650000X0.412500X0.650000X-0.412500X0.650000X0*%
%ADD37RoundRect,0.250000X0.412500X0.650000X-0.412500X0.650000X-0.412500X-0.650000X0.412500X-0.650000X0*%
%ADD38RoundRect,0.250000X1.075000X0.550000X-1.075000X0.550000X-1.075000X-0.550000X1.075000X-0.550000X0*%
%ADD39RoundRect,0.150000X0.150000X-0.587500X0.150000X0.587500X-0.150000X0.587500X-0.150000X-0.587500X0*%
%ADD40C,1.879600*%
G04 APERTURE END LIST*
D10*
%TO.C,C1*%
X145950000Y-99450000D03*
X143950000Y-99450000D03*
%TD*%
D11*
%TO.C,R11*%
X186750000Y-72950000D03*
X186750000Y-69550000D03*
%TD*%
D12*
%TO.C,RV1*%
X207000000Y-117450000D03*
X209500000Y-112450000D03*
X212000000Y-117450000D03*
%TD*%
D13*
%TO.C,H3*%
X216500000Y-49500000D03*
%TD*%
D14*
%TO.C,J11*%
X181420000Y-51260000D03*
D15*
X183960000Y-51260000D03*
X186500000Y-51260000D03*
%TD*%
D16*
%TO.C,J1*%
X154525000Y-113250000D03*
D17*
X148225000Y-113250000D03*
D18*
X151625000Y-118050000D03*
%TD*%
D19*
%TO.C,R13*%
X184595000Y-56340000D03*
X184595000Y-59440000D03*
%TD*%
D20*
%TO.C,R15*%
X199450000Y-89725000D03*
X202550000Y-89725000D03*
%TD*%
D10*
%TO.C,C2*%
X150750000Y-99450000D03*
X153250000Y-99450000D03*
%TD*%
D21*
%TO.C,D3*%
X167850000Y-107550000D03*
X167850000Y-110525000D03*
%TD*%
D14*
%TO.C,JP1*%
X163350000Y-55500000D03*
D15*
X160810000Y-55500000D03*
X158270000Y-55500000D03*
%TD*%
D10*
%TO.C,C6*%
X145060000Y-60800000D03*
X147560000Y-60800000D03*
%TD*%
D22*
%TO.C,U2*%
X148550000Y-56100000D03*
X150850000Y-56100000D03*
D23*
X150850000Y-49800000D03*
D22*
X153150000Y-56100000D03*
%TD*%
D14*
%TO.C,J8*%
X192790000Y-121400000D03*
D15*
X190250000Y-121400000D03*
X187710000Y-121400000D03*
X185170000Y-121400000D03*
%TD*%
D24*
%TO.C,D5*%
X176430000Y-56595000D03*
X176430000Y-59895000D03*
X181330000Y-59895000D03*
X181330000Y-56595000D03*
%TD*%
D21*
%TO.C,D4*%
X171200000Y-107550000D03*
X171200000Y-110525000D03*
%TD*%
D14*
%TO.C,J14*%
X201930000Y-59550000D03*
D15*
X204470000Y-59550000D03*
X207010000Y-59550000D03*
X209550000Y-59550000D03*
%TD*%
D25*
%TO.C,R5*%
X190250000Y-113150000D03*
X187150000Y-113150000D03*
%TD*%
%TO.C,R6*%
X190200000Y-104250000D03*
X187100000Y-104250000D03*
%TD*%
D14*
%TO.C,J13*%
X197625000Y-93502000D03*
D15*
X200165000Y-93502000D03*
X202705000Y-93502000D03*
X205245000Y-93502000D03*
X207785000Y-93502000D03*
X210325000Y-93502000D03*
%TD*%
D26*
%TO.C,SW1*%
X182700000Y-117250000D03*
X176200000Y-117250000D03*
X182700000Y-112750000D03*
X176200000Y-112750000D03*
%TD*%
D20*
%TO.C,R9*%
X200710000Y-54375000D03*
X203810000Y-54375000D03*
%TD*%
D26*
%TO.C,SW4*%
X194450000Y-112700000D03*
X200950000Y-112700000D03*
X194450000Y-117200000D03*
X200950000Y-117200000D03*
%TD*%
D25*
%TO.C,R16*%
X208200000Y-89675000D03*
X205100000Y-89675000D03*
%TD*%
D19*
%TO.C,R12*%
X188300000Y-56450000D03*
X188300000Y-59550000D03*
%TD*%
D26*
%TO.C,SW3*%
X194450000Y-103600000D03*
X200950000Y-103600000D03*
X194450000Y-108100000D03*
X200950000Y-108100000D03*
%TD*%
D27*
%TO.C,R2*%
X164524000Y-118122000D03*
X164524000Y-115022000D03*
%TD*%
D20*
%TO.C,R7*%
X187150000Y-108700000D03*
X190250000Y-108700000D03*
%TD*%
D14*
%TO.C,J2*%
X162960000Y-78230000D03*
D15*
X162960000Y-80770000D03*
X162960000Y-83310000D03*
X162960000Y-85850000D03*
X162960000Y-88390000D03*
X165500000Y-88390000D03*
X165500000Y-85850000D03*
X165500000Y-83310000D03*
X165500000Y-80770000D03*
X165500000Y-78230000D03*
%TD*%
D28*
%TO.C,C5*%
X148162500Y-67200000D03*
X144037500Y-67200000D03*
%TD*%
D13*
%TO.C,H1*%
X143500000Y-122450000D03*
%TD*%
D29*
%TO.C,BZ1*%
X180000000Y-72900000D03*
X173500000Y-72900000D03*
%TD*%
D10*
%TO.C,C4*%
X156450000Y-60900000D03*
X153950000Y-60900000D03*
%TD*%
D20*
%TO.C,R8*%
X187150000Y-116950000D03*
X190250000Y-116950000D03*
%TD*%
D21*
%TO.C,D1*%
X161150000Y-107525000D03*
X161150000Y-110500000D03*
%TD*%
D20*
%TO.C,R14*%
X182900000Y-64300000D03*
X186000000Y-64300000D03*
%TD*%
D30*
%TO.C,C7*%
X167325000Y-54375000D03*
X167325000Y-57500000D03*
%TD*%
D31*
%TO.C,U1*%
X143896000Y-92021000D03*
D32*
X146436000Y-92021000D03*
D33*
X154564000Y-92021000D03*
D34*
X157104000Y-92021000D03*
D33*
X154564000Y-73479000D03*
D34*
X157104000Y-73479000D03*
D31*
X143896000Y-73479000D03*
D32*
X146436000Y-73479000D03*
%TD*%
D35*
%TO.C,F1*%
X153000000Y-105350000D03*
X147900000Y-104150000D03*
%TD*%
D36*
%TO.C,C9*%
X211900000Y-108750000D03*
X215025000Y-108750000D03*
%TD*%
D27*
%TO.C,R1*%
X161214000Y-118122000D03*
X161214000Y-115022000D03*
%TD*%
D13*
%TO.C,H4*%
X143500000Y-49500000D03*
%TD*%
D14*
%TO.C,J3*%
X162860000Y-62710000D03*
D15*
X162860000Y-65250000D03*
X162860000Y-67790000D03*
X162860000Y-70330000D03*
X162860000Y-72870000D03*
X165400000Y-72870000D03*
X165400000Y-70330000D03*
X165400000Y-67790000D03*
X165400000Y-65250000D03*
X165400000Y-62710000D03*
%TD*%
D37*
%TO.C,C8*%
X208875000Y-108750000D03*
X205750000Y-108750000D03*
%TD*%
D27*
%TO.C,R4*%
X171144000Y-118122000D03*
X171144000Y-115022000D03*
%TD*%
D14*
%TO.C,J7*%
X170580000Y-121550000D03*
D15*
X168040000Y-121550000D03*
X165500000Y-121550000D03*
X162960000Y-121550000D03*
%TD*%
D38*
%TO.C,C3*%
X157150000Y-67100000D03*
X153800000Y-67100000D03*
%TD*%
D39*
%TO.C,Q1*%
X177950000Y-64700000D03*
X179850000Y-64700000D03*
X178900000Y-62825000D03*
%TD*%
D14*
%TO.C,J9*%
X210000000Y-121400000D03*
D15*
X207460000Y-121400000D03*
%TD*%
D40*
%TO.C,SW6*%
X159310000Y-49900000D03*
X161850000Y-49900000D03*
X164390000Y-49900000D03*
%TD*%
D13*
%TO.C,H2*%
X216500000Y-122500000D03*
%TD*%
D30*
%TO.C,C10*%
X172530000Y-56612500D03*
X172530000Y-59737500D03*
%TD*%
D25*
%TO.C,R10*%
X209450000Y-54375000D03*
X206350000Y-54375000D03*
%TD*%
D14*
%TO.C,J6*%
X171300000Y-49000000D03*
D15*
X171300000Y-51540000D03*
%TD*%
D14*
%TO.C,J10*%
X206350000Y-50565000D03*
D15*
X203810000Y-50565000D03*
%TD*%
D21*
%TO.C,D2*%
X164550000Y-107575000D03*
X164550000Y-110550000D03*
%TD*%
D26*
%TO.C,SW2*%
X176200000Y-103550000D03*
X182700000Y-103550000D03*
X176200000Y-108050000D03*
X182700000Y-108050000D03*
%TD*%
D27*
%TO.C,R3*%
X167834000Y-118122000D03*
X167834000Y-115022000D03*
%TD*%
D14*
%TO.C,J12*%
X214825000Y-92840000D03*
D15*
X214825000Y-90300000D03*
%TD*%
D12*
%TO.C,RV2*%
X207150000Y-105200000D03*
X209650000Y-100200000D03*
X212150000Y-105200000D03*
%TD*%
M02*
